<?xml version="1.0" standalone="no"?>
<!DOCTYPE svg PUBLIC "-//W3C//DTD SVG 1.1//EN" "http://www.w3.org/Graphics/SVG/1.1/DTD/svg11.dtd" >
<svg xmlns="http://www.w3.org/2000/svg">
<metadata></metadata>
<defs>
<font id="arialregular" horiz-adv-x="1922" >
<font-face units-per-em="2048" ascent="1638" descent="-410" />
<missing-glyph horiz-adv-x="512" />
<glyph horiz-adv-x="0" />
<glyph horiz-adv-x="0" />
<glyph unicode=" "  horiz-adv-x="512" />
<glyph unicode="&#x09;" horiz-adv-x="512" />
<glyph unicode="&#xa0;" horiz-adv-x="512" />
<glyph unicode="." horiz-adv-x="1707" d="M721 735q13 13 20.5 14.5t10.5 -1.5q4 -4 4 -13v-34q-39 -13 -72 -13.5t-62.5 9t-56.5 28.5t-53 45q-13 0 -19.5 5.5t-6.5 12t6.5 12t19.5 5.5h35q13 -26 32 -40.5t42 -21t48.5 -7.5t51.5 -1zM478 875q-14 0 -21.5 5t-10.5 12q-4 7 -4 18v105h36q9 -1 13 -5 q3 -4 1.5 -10.5t-14.5 -20.5v-69v-35zM930 701q53 53 79 116t26 128t-26.5 128t-78.5 116q-52 52 -115 78t-128.5 26t-129 -26t-115.5 -78t-78 -115t-26 -128.5t26 -129t78 -115.5q52 -53 115.5 -79t129 -25.5t128.5 26.5t115 78zM1035 1293q69 -62 102 -144t32.5 -171 t-34.5 -179.5t-100 -168.5l70 -69q53 26 84 27t55 -27l278 -314q12 -14 18.5 -32t7 -37t-5.5 -37t-20 -32q-13 -13 -31.5 -20t-38 -7t-37.5 6.5t-31 20.5l-314 278q-28 24 -27 55t27 84l-69 70q-78 -66 -168.5 -100t-179.5 -34.5t-171.5 32.5t-143.5 102 q-68 76 -101.5 169.5t-32.5 189t34.5 184t99.5 154.5q78 65 168.5 98.5t183 34t181.5 -32t164 -100.5z" />
<glyph unicode="&#x25fc;" horiz-adv-x="500" d="M0 0v0v0v0v0z" />
<glyph unicode="&#xf001;" horiz-adv-x="1707" d="M442 590q0 -25 10 -39.5t23 -26.5q0 -10 8 -15l8 -2l-69 -332l-2 -8q-5 -8 -14 -8h-398v16q0 100 21 192t59.5 170t94 139t124.5 98l8 -2q3 -2 6 -5.5t3 -9.5q37 -25 74 -39t77 -27v-16q-13 -15 -23 -38t-10 -47zM1290 1023q37 0 69.5 14.5t57.5 39t39.5 57.5t14.5 70 q0 40 -10.5 67t-22.5 52q-13 6 -23.5 8.5t-24.5 -1t-33.5 -13t-50.5 -27.5q-27 0 -41.5 -8.5t-27.5 -8.5q-37 0 -63.5 10.5t-51.5 22.5q-12 -12 -14 -37t-2 -65q0 -37 14.5 -70t39.5 -57.5t58.5 -39t71.5 -14.5zM1290 1405q-40 0 -75 -14.5t-60 -51.5q6 -6 20.5 -11.5t31 -7 t34 2.5t29.5 16q40 12 73 22.5t45 10.5q-24 12 -48.5 22.5t-49.5 10.5zM1536 1204q0 -49 -20 -91t-54 -73t-78.5 -48.5t-93.5 -17.5q-51 0 -96 17.5t-79.5 48.5t-54.5 73t-20 91q0 26 3 46t9.5 37.5t15.5 33.5t21 34v17q38 37 86.5 59.5t114.5 22.5q49 0 93.5 -18 t78.5 -50.5t54 -78.5t20 -103zM1454 974q57 -32 103 -78.5t78.5 -105.5t50.5 -130.5t18 -152.5v-16h-16h-300h-16l-49 266v17q12 0 21.5 5.5t15.5 13t9 16t3 14.5q0 25 -10 39t-23 27h-16q0 9 8 14l8 2q35 0 63.5 18.5t51.5 34.5v16zM1204 823q0 -6 3 -14.5t7.5 -16 t10.5 -13t12 -5.5l17 -17l-50 -266h-16h-99q-12 37 -30.5 74t-41 71.5t-47 65t-48.5 55.5q36 63 79 120t105 97q12 0 14 -2t2 -14q23 -16 51.5 -34.5t63.5 -18.5v-16q-12 -13 -22.5 -27t-10.5 -39zM540 839q49 0 92 20.5t74.5 55t49.5 79.5t18 95q0 37 -10.5 72t-22.5 60 h-16q-14 13 -28 19.5t-33 3.5t-44.5 -16.5t-62.5 -39.5q-25 -13 -49.5 -15t-49.5 -2q-39 0 -74.5 10.5t-59.5 22.5q-13 -25 -23 -51.5t-10 -63.5q0 -50 20 -95t54 -79.5t79.5 -55t95.5 -20.5zM540 1339q-62 0 -104 -22.5t-80 -59.5q12 -6 30 -14.5t40.5 -13.5t47 -4t50.5 15 q48 26 80 38t68 12q-37 25 -65.5 37t-66.5 12zM840 1089q0 -69 -23.5 -127t-64.5 -99.5t-95.5 -65t-116.5 -23.5q-69 0 -127 23.5t-99.5 65t-65 99.5t-23.5 127q0 25 3 47t9.5 44t15.5 44.5t21 48.5h17q18 31 45.5 55.5t60.5 41.5t69.5 26t73.5 9q62 0 116.5 -26t95.5 -69.5 t64.5 -100.5t23.5 -120zM757 774q68 -37 123.5 -98t96.5 -139t65.5 -170.5t30.5 -191.5q-1 0 -9 -2q-8 -5 -8 -14h-401l-16 16l-49 332v17q12 12 22.5 26.5t10.5 39.5q0 24 -4 47t-29 38v16q49 13 86.5 27t64.5 39q0 10 8 15z" />
<glyph unicode="&#xf002;" horiz-adv-x="1707" d="M1206 1101q82 -82 123 -203q0 -11 -1.5 -21t-12.5 -20q-5 0 -7 -2.5t-4 -4.5l-2 -6q-20 -11 -30.5 -4t-10.5 17q-10 25 -22.5 51t-27.5 49.5t-33 43.5t-39 33q-29 42 -77 70t-99 39q-23 20 0 40q0 10 4.5 17.5t10.5 11.5t13 3.5t12 -5.5q61 -11 111 -39t92 -70zM1546 898 q0 -11 -1.5 -19.5t-11.5 -8.5l-13 -13q-21 -10 -31 -3.5t-10 16.5q-42 204 -164 326q-72 72 -154.5 112.5t-185.5 51.5q-9 11 -16 22.5t4 31.5q9 11 21 19t33 8q103 -20 193.5 -66t159.5 -110q75 -69 115.5 -160.5t60.5 -206.5zM418 218l-67 69l-82 -41l109 -109zM1275 653 q9 0 11.5 -15t2.5 -25q0 -11 -8.5 -19.5t-19.5 -8.5l-612 -298l136 -136q21 -21 21 -39.5t-21 -29.5l-13 -26q-11 -11 -20.5 -12.5t-19.5 -1.5q-11 0 -19.5 1.5t-8.5 12.5l-163 162l-68 -54l-55 -95q-9 -10 -19 -18.5t-21 -8.5t-20.5 7t-20.5 7l-149 149q-11 11 -12.5 20.5 t-1.5 20.5q0 10 8.5 20t18.5 21l96 67l54 54l353 721q11 11 21 19t20 8t20 -1.5t20 -11.5z" />
<glyph unicode="&#xf003;" horiz-adv-x="1707" d="M959 1022q11 22 11 48t-9.5 50.5t-28.5 45t-46 31.5h-15q-1 0 -7 2q-7 3 -7 13h-15h-14h-15q0 -11 -2 -13t-13 -2h-14q-6 0 -8.5 -2.5l-4.5 -4.5q-2 -8 -2 -7h-15v-15q-11 0 -12.5 -2t-1.5 -13l-8 -2q-7 -4 -7 -12l-14 -15q-6 -16 -6.5 -34.5t4 -36.5t12.5 -34t19 -27 l44 -43h14h15h15l14 -15q0 9 7 13l8 2h14h15h15q0 11 1.5 13t12.5 2v14h14l16 14q0 10 7 14q6 2 7 2v14zM1222 1226q11 -22 11.5 -46t-6 -45.5t-19.5 -39.5t-29 -29q32 -33 43 -74.5t0 -86.5q-6 0 -8.5 -2.5l-4.5 -4.5q-2 -8 -2 -7v-16h-14v-14h-14q0 -1 -2 -7q-4 -7 -14 -7 h-14l-2 -8q-4 -7 -13 -7h-14h-15h-15h-14q0 -33 -10.5 -62t-33.5 -40q-21 -23 -44 -44h-14h-15h-14h-30h-14h-15v14h-29q0 11 -2 13t-13 2q0 11 -1.5 13t-12.5 2l-15 -15l-8 -2q-7 -4 -7 -13h-14h-15q0 -1 -2 -7q-4 -7 -13 -7h-14h-15h-14h-15q-11 0 -15 7t-14 7l-8 2 q-7 3 -7 13q-33 22 -45.5 53t-12.5 64h-15h-15q0 5 -2.5 8t-4.5 5q-8 2 -7 2h-14h-16v14h-14h-15v14h-14v16h-15v14q0 -1 -2 7q-2 2 -5 4.5t-8 2.5q-11 45 0 86.5t44 74.5q-11 16 -21 35.5t-15.5 40t-4.5 42t12 43.5q0 -1 2 7q2 3 4.5 5.5t8.5 2.5v14h14v15h15v15h14 q0 7 8 12l8 2h14h14h15h29q-5 22 0 43.5t17 40.5t30.5 35t40.5 27h15h14h15h14h15h15h14q0 -9 7 -12l8 -2q8 0 13 -8q2 -8 2 -7q5 0 7.5 -2.5l4.5 -4.5q2 -8 2 -7q9 0 13 7q2 6 2 7h14v15h15h15q0 8 7 12q6 2 7 2h30h14h29q-1 0 7 -2q8 -5 8 -12q45 -12 66 -49.5t21 -82.5 h15h15q0 -9 7 -12q6 -2 7 -2h15l14 -15h16q0 -10 7 -13q6 -2 7 -2q0 -9 7 -12q6 -2 7 -2v-15q8 0 13 -8q2 -8 2 -7zM1032 598q33 22 56.5 44t45.5 44v-643q0 -22 -9 -32.5t-20 -10.5q-11 -11 -29.5 -11t-29.5 11l-204 218l-205 -218q-11 0 -21.5 -6.5t-21.5 -6.5l-8 2 q-7 3 -7 11q-11 0 -20 10.5t-9 32.5v628q11 -11 20 -19.5t18.5 -15.5t21 -12.5t27.5 -10.5q0 -11 2 -13t13 -2v-438l161 160q11 11 29 11t29 -11l161 -160v438z" />
<glyph unicode="&#xf004;" horiz-adv-x="1707" d="M1315 182v562h-334v-562h334zM471 182h335v562h-335v-562zM418 958v-161h388v161h-388zM619 1280q5 -26 24 -50.5t47.5 -47t65 -42t77.5 -34.5q-15 45 -32 88t-35 76.5t-35 54.5t-32 21h-12t-13 -1.5t-10.5 -4t-4.5 -7.5q-27 -20 -35 -37q-2 -5 -3 -8.5t-2 -7.5z M1087 1280q-10 0 -22 -16t-24.5 -42.5t-25 -60.5t-22.5 -69q30 20 57 39.5t47 37t32 32t12 24.5l-2 10q-2 5 -4.5 12.5t-7.5 18.5q-10 0 -20 7t-20 7zM1382 958h-401v-161h401v161zM1422 1052q20 0 36.5 -10t16.5 -30v-268q0 -20 -16.5 -30t-36.5 -10h-13v-563 q0 -20 -10.5 -36.5t-30.5 -16.5h-950q-20 0 -30 16.5t-10 36.5v563h-14q-20 0 -36.5 10t-16.5 30v268q0 20 16.5 30t36.5 10h349q-30 20 -61.5 42.5t-58 49t-45 57t-22.5 65.5q0 10 0.5 24.5t6.5 32.5t19.5 37.5t39.5 38.5q29 22 53 31.5t54 9.5q40 0 73 -27t59 -68 t46.5 -91t35.5 -95q10 35 25.5 71t36.5 65t49 47t63 18q30 0 52 -3.5t42 -23.5q42 -31 53 -60.5t1 -60.5q0 -20 -11.5 -42t-30.5 -43t-43.5 -40.5t-49.5 -34.5h322z" />
<glyph unicode="&#xf005;" horiz-adv-x="1707" d="M865 705q-40 0 -60.5 24.5t-20.5 54.5q0 31 20.5 49t60.5 18q30 0 48.5 -18t18.5 -49q0 -30 -18.5 -54.5t-48.5 -24.5zM865 945q-30 0 -57 -11.5t-47.5 -32t-32 -47t-11.5 -56.5t11.5 -55t32 -42.5t47.5 -27t57 -9.5q25 0 49 9.5t43 27t30.5 42.5t11.5 55t-11.5 56.5 t-30.5 47t-43 32t-49 11.5zM865 598q-45 0 -82 16t-63.5 43.5t-41 63.5t-14.5 77q0 40 14.5 76.5t41 64t63.5 44t82 16.5q40 0 74.5 -16.5t59.5 -44t39 -64t14 -76.5q0 -41 -14 -77t-39 -63.5t-59.5 -43.5t-74.5 -16zM423 918q0 -91 38 -175.5t110 -144.5q0 -11 8 -14 t18 -13q5 0 10 -2.5l9 -4.5l8 -7v-14q11 0 20.5 -1.5t19.5 -10.5q5 0 10 -2.5l9 -4.5l8 -7h14q5 -5 9 -7l8 -4q8 -2 9 -2h14q10 -11 13 -12.5t14 -1.5h12h28h13q10 0 19.5 -6.5t20.5 -6.5t20 6.5t20 6.5h27h14q9 0 19 1.5t20 12.5q11 0 19 1.5t8 11.5h13l9 7q4 2 8.5 4.5 t9.5 2.5h14q0 9 8 10.5t18 1.5v14q10 0 13.5 7t13.5 7q10 10 18.5 13t8.5 14q72 60 109.5 144.5t37.5 175.5q0 90 -33 168.5t-90.5 136t-136 90.5t-168.5 33t-170.5 -33t-141 -90.5t-95.5 -136t-35 -168.5zM477 557q-72 72 -109.5 160.5t-37.5 200.5q0 110 42 207.5t115 170 t170.5 115t207.5 42.5q70 0 136 -19t124 -54t106 -84t82.5 -108.5t53.5 -128t19 -141.5q0 -133 -55 -237.5t-146 -176.5q-9 -11 -12 -12.5t-14 -1.5v-13q-1 0 -7 -2q-6 -5 -6 -11h-14h-13v-14h-27q0 -5 -2.5 -7t-4.5 -4l-6 -2h-13l-14 -14h-13h-14v-13h-26q-6 0 -9 -2 t-5.5 -4.5t-5 -4.5t-7.5 -2h-26h-28q-10 0 -13.5 -7t-13.5 -7h-26h-27h-13q-10 0 -13.5 7t-13.5 7h-26h-14h-13l-14 13h-14h-12q-11 0 -12.5 1.5t-1.5 11.5h-13h-14l-13 14q-10 0 -13 1.5t-14 11.5h-27v14h-13q-10 10 -13 11.5t-14 1.5v13q-10 0 -13 1.5t-13 12.5q-1 0 -7 2 q-7 3 -7 11q-8 0 -11 7q-2 6 -2 7q-11 9 -19 12t-8 14zM1386 237v-14.5t-1.5 -21t-4 -23.5t-7.5 -22q-10 -15 -28.5 -27.5t-41 -21t-46.5 -13.5t-44 -5h-709q-51 0 -91 18.5t-69 48.5q-11 20 -12.5 40t-1.5 41l107 253q81 -81 188 -127.5t240 -46.5q121 0 227.5 46.5 t187.5 127.5z" />
<glyph unicode="&#xf006;" horiz-adv-x="1707" d="M265 969q0 -6 -4.5 -8.5t-10 -2.5t-10 2.5t-4.5 8.5q-6 0 -8.5 4.5t-2.5 11.5t3 14.5t8 12.5l157 157q11 0 21.5 5t21.5 -5l385 -215l428 387l-28 27q0 11 1.5 14.5t12.5 13.5l185 59q0 8 7 5q4 -2 8 -5q-11 -27 -23.5 -57.5t-23.5 -56.5l-25 -59v-28h-14h-14l-43 42 l-444 -399h-13h-14l-400 214zM1521 227q21 0 38.5 -18t17.5 -39v-15q0 -21 -17.5 -39t-38.5 -18h-1341q-22 0 -40 18t-18 39v15q0 21 18 39t40 18h1341zM1306 1012q16 0 29.5 -7t23 -18t14.5 -23.5t5 -23.5v-557q0 -11 -5 -23t-14.5 -22.5t-23 -17.5t-29.5 -7h-129 q-16 0 -29 7t-22.5 17.5t-14.5 22.5t-5 23v557q0 11 5 23.5t14.5 23.5t22.5 18t29 7h129zM893 626q32 0 51.5 -19.5t19.5 -52.5v-171q0 -11 -5 -23t-14.5 -22.5t-22.5 -17.5t-29 -7h-114q-17 0 -30 7t-22.5 17.5t-14.5 22.5t-5 23v171q0 33 19.5 52.5t52.5 19.5h114z M493 797q11 0 24 -5t23.5 -14.5t17.5 -23t7 -29.5v-342q0 -11 -7 -23t-17.5 -22.5t-23.5 -17.5t-24 -7h-128q-17 0 -30 7t-22 17.5t-14 22.5t-5 23v342q0 33 19 52.5t52 19.5h128z" />
<glyph unicode="&#xf007;" horiz-adv-x="1707" d="M772 477q19 -42 0 -84l-321 -320q-5 -5 -15 -8t-20.5 -3t-20 2.5t-15.5 8.5l-139 139q-11 11 -10.5 29.5t10.5 40.5l335 335q21 10 40.5 10t30.5 -10zM1398 239q21 43 0 85q-41 20 -83 0q-21 -42 0 -85q42 -18 83 0zM1511 434q33 -29 48.5 -68.5t15 -81.5t-16.5 -83 t-47 -72q-32 -32 -72.5 -51t-82.5 -19t-82.5 18.5t-70.5 51.5l-530 585q-15 0 -32.5 -2t-36 -5t-37 -5t-34.5 -2q-168 0 -250 84q-36 36 -62 79.5t-40.5 91t-17 96t8.5 95.5q0 8 7 12q6 2 7 2h29l165 -168l169 -41l138 139l-40 167l-168 167q0 6 -2 9t-3.5 5.5t-0.5 5.5t6 8 h14q10 11 28.5 12.5t40.5 1.5q85 0 156 -29.5t123 -81.5q47 -47 68 -104.5t24.5 -113.5t-4.5 -105.5t-18 -80.5l140 -112l13 -14zM1119 868l-84 69l252 250l42 84l97 84l97 -111l-70 -98l-82 -28z" />
<glyph unicode="&#xf008;" horiz-adv-x="1707" d="M832 853q51 0 95 19t77 53.5t52 81.5t19 103q0 40 -10 79t-30 70q-21 4 -38 6t-37.5 -2t-47 -14.5t-66.5 -30.5q-22 -11 -48.5 -19t-46.5 -8t-39.5 4.5t-37.5 12t-33 17.5t-25 20q-20 -30 -30 -67.5t-10 -67.5q0 -56 21 -103t56.5 -81.5t82 -53.5t96.5 -19zM832 1367 q-61 0 -104.5 -21t-84.5 -61q15 -10 35 -19t43 -13t47.5 -0.5t49.5 18.5q51 21 85 32t64 22q-30 21 -66.5 31.5t-68.5 10.5zM1142 1110q0 -66 -24 -124.5t-65.5 -103t-98 -70.5t-122.5 -26t-124.5 26t-103 70.5t-70.5 103t-26 124.5q0 51 17.5 99t37.5 90h13v12 q20 26 47.5 48.5t60.5 39t70.5 26t77.5 9.5q66 0 122.5 -26t98 -70.5t65.5 -103t24 -124.5zM1062 786q70 -41 127.5 -101t98 -137t63 -170t22.5 -200v-13h-14h-406q-10 0 -11.5 1.5t-1.5 11.5l-66 337l12 14q41 20 41 81q0 20 -10 38.5t-31 29.5v13q0 11 1.5 13t12.5 2 q40 10 73.5 30t75.5 50h13zM725 610q0 -29 16.5 -49.5t36.5 -31.5v-14l-53 -337q0 -5 -2.5 -7t-4.5 -4q-8 -2 -7 -2h-419q-5 0 -7 2l-4 4q-2 6 -2 7q10 213 91 370t233 238h13q31 -30 69 -50t80 -30l13 -15q-1 0 -7 -2q-6 -5 -6 -11q-20 -11 -30 -29.5t-10 -38.5z" />
<glyph unicode="&#xf009;" horiz-adv-x="1707" d="M1244 839l-341 -328h702zM1375 511h-242v-428h242v428zM1025 116q-99 -33 -198 -33q-96 0 -184.5 25.5t-165.5 71t-139.5 109t-107.5 140t-69.5 164t-24.5 180.5q0 144 54 270t147.5 220t219.5 148t270 54t269.5 -54t219.5 -148t148 -220t54 -270q0 -24 -1.5 -56 t-9.5 -64h-33q0 32 5.5 64t5.5 56q0 136 -52 256t-141.5 209.5t-209 141.5t-255.5 52t-254 -52t-205.5 -141.5t-138 -209.5t-50.5 -256q0 -87 23 -169t64.5 -154t100.5 -131.5t131 -102.5t155 -66.5t174 -23.5q114 0 198 33v-43zM969 1278q-12 -3 -18.5 -1.5t-10.5 6t-7 12 t-7 15.5q-17 17 -45.5 25.5t-53.5 8.5q-11 -3 -23.5 -15.5t-26.5 -27.5t-29 -30.5t-31 -24t-32.5 -8t-33.5 17.5q-12 8 -14.5 30t0.5 48t10 50t15 36q42 9 83.5 16t92.5 7q42 0 82 -7t82 -16v-11q-17 0 -38 4t-38 -4q-4 -15 11.5 -34.5t31 -38.5t20.5 -35t-20 -23zM542 685 q25 -16 53.5 -28t52 -27.5t37.5 -38t10 -59.5q0 -58 -15.5 -112t-49.5 -96q-17 -20 -34.5 -37t-34 -34t-30.5 -34t-23 -37q-32 16 -58 32t-50 33v43q4 13 11 27t13 29.5t9 32t-1 33.5q-4 16 -12 20.5t-18.5 5.5t-22.5 3t-24 14q-4 8 -6.5 21.5t-4 28t-4 28t-6.5 21.5 q-12 25 -16.5 53.5t-12 53.5t-22.5 41.5t-48 16.5v33q-17 0 -33.5 1t-32.5 9h-11q0 99 25.5 188.5t72 166t110.5 137t142 101.5q9 0 16 -7t7 -16q-13 -8 -21 -21.5t-8.5 -28.5t6.5 -30.5t23 -27.5t33 -26.5t28.5 -33.5t14 -42t-10.5 -52q-16 4 -22 13t-9.5 19t-7 19.5 t-15.5 14.5q-18 7 -29 4t-18.5 -12.5t-14 -22.5t-15.5 -25q-17 -24 -36 -49t-52 -49q-8 0 -16.5 -1.5t-16.5 -9.5t-9 -22t-1 -22q-8 -8 -28 -13.5t-39.5 -12.5t-33 -18.5t-9.5 -32.5q0 -8 7 -16t16 -16.5t18 -16.5t13 -17q8 -8 5.5 -16t5.5 -16q4 -5 11.5 -7.5t16 -3 t16.5 -0.5h11q33 -8 60.5 -15t60.5 -7q16 0 27 -2t19.5 -6.5t15.5 -10.5t15 -15zM355 894q-3 -19 5 -31t21.5 -19.5t31 -13.5t33 -13t27.5 -17.5t15 -26.5q-13 -4 -33.5 -0.5t-42.5 10.5t-40.5 16.5t-27.5 18.5q-32 33 0 65zM1331 960q-8 4 -36.5 6t-59.5 1t-55 -5.5 t-24 -12.5q-4 -13 3 -16t18 -2t23.5 4t20.5 3q6 -3 -12 -25t-49.5 -52.5t-71 -64.5t-75.5 -59.5t-63.5 -38.5t-35.5 -2q-16 21 -24.5 50.5t-9.5 60t5 59.5t18 49q8 13 31.5 25.5t48 23.5t44 21t19.5 18q-25 0 -44 1.5t-43 9.5q-3 19 3 31t17 19.5t24.5 13t25.5 11t20 14 t8 22.5q0 12 -16 32t-30.5 39.5t-18 34t20.5 14.5q12 4 24.5 -6t25 -24.5t25 -28.5t24.5 -18q42 -8 55.5 12t-11.5 53q-9 4 -18.5 5.5t-16.5 4.5t-10 10.5t1 24.5q0 12 7 22t16.5 18t18.5 14.5t13 11.5q78 -42 141 -102.5t107 -135.5t68 -162t24 -182v-32q-17 0 -33 7 t-30.5 18.5t-26.5 25t-20 26.5q-33 33 -33 65q-4 13 -5 25t-3 23.5t-7.5 21.5t-17.5 18zM542 1321q0 8 -1.5 9.5t-9.5 1.5q8 9 17.5 16t25.5 7z" />
<glyph unicode="&#xf010;" horiz-adv-x="1707" d="M624 1317q17 -108 73 -161t163 -53q108 0 164 53t74 161l402 -143l-189 -260l-166 23l71 -663h-356h-356l96 663l-190 -23l-166 260z" />
<glyph unicode="&#xf011;" horiz-adv-x="1683" d="M974 601q0 -96 -14.5 -180.5t-37 -147t-50 -98.5t-52.5 -36q-23 3 -46.5 32t-44 86t-37.5 142.5t-26 201.5q-8 97 -7.5 181t16 146.5t50 98.5t95.5 36t93 -36t45.5 -98.5t14.5 -147t1 -180.5zM461 1140q54 -11 64 -33.5t-6 -56t-50 -78t-69 -99t-62.5 -118.5t-30.5 -137 q-5 -116 26.5 -202.5t89.5 -144t138 -86.5t173 -29h18q-45 -32 -96.5 -54.5t-109.5 -22.5q-80 0 -151.5 42t-125 115t-85 171t-31.5 211q0 93 23 177.5t63.5 153.5t97 118.5t124.5 72.5zM1188 1140q-56 -11 -68 -33.5t2.5 -56.5t48 -78t68 -98.5t62.5 -118.5t32 -137 q6 -116 -24 -202.5t-87.5 -144t-138.5 -86.5t-177 -29h-9q45 -32 95 -54.5t102 -22.5q83 0 156.5 42t128 115t86 171t31.5 211q0 93 -23 177.5t-63.5 153.5t-97.5 118.5t-124 72.5zM983 1302q0 -35 -13.5 -65t-37 -51.5t-54.5 -33.5t-67 -12q-32 0 -61 12t-51.5 33.5 t-36 51.5t-13.5 65q0 36 13.5 65.5t36 51.5t51.5 34t61 12q36 0 67 -12t54.5 -34t37 -51.5t13.5 -65.5z" />
<glyph unicode="&#xf012;" horiz-adv-x="1707" d="M605 499q12 -7 20 -8t20 -1q27 0 60.5 17t72.5 47t83 70t93 86l16 15l-8 9q-18 26 -41 49.5t-48 47.5l-17 -16l-8 -16q19 -13 37 -33.5t36 -40.5q-45 -49 -88.5 -88t-80 -65t-64.5 -39t-43 -10h-16q-2 2 -4 6q-4 4 -4 18q0 18 11.5 49t33 70.5t51.5 86t67 95.5 q18 -7 35 -18.5t29 -30.5l8 16l17 16q-19 13 -41.5 29t-39.5 29l-17 8l-8 -17q-81 -106 -130 -191t-49 -142q0 -18 5.5 -30t11.5 -18zM856 815q31 -18 51 -41t39 -49q-55 -58 -107 -104t-95.5 -75t-75.5 -38t-47 6q-20 12 -16 45.5t26.5 82.5t61.5 108t91 122 q18 -12 36 -25.5t36 -31.5zM409 344q18 6 35 23t22 42q10 43 28.5 67t39.5 36t42 15t36 3h9l24 -31q-6 -56 -19.5 -89.5t-31.5 -52t-40.5 -24.5t-46.5 -6q-25 0 -52.5 5t-45.5 12zM507 287q30 0 60.5 11.5t55 36.5t39.5 65.5t15 98.5v8l-39 56h-9v-16l-17 -8l17 8v16h-17 q-15 0 -41.5 -4.5t-54 -19.5t-51 -44t-32.5 -78q-6 -19 -17 -26.5t-23 -14.5q-7 -3 -12.5 -4t-10.5 -2q-2 -1 -10 -1l-57 -9l50 -25q12 -6 23 -12.5t23 -11.5q21 -9 49 -16.5t59 -7.5zM661 507q-5 -60 -20 -98.5t-37 -60.5t-48.5 -30t-53.5 -8q-32 0 -67 11t-75 31 q11 1 20.5 2.5t18.5 5.5q16 6 31 19t20 38q6 27 17.5 47.5t25.5 35t29.5 23.5t30.5 14q32 12 76 10zM1085 889q78 92 143.5 174t107.5 149t55 115.5t-14 74.5q-25 24 -71 3.5t-106.5 -73.5t-133.5 -132t-153 -173q-79 -93 -141 -178.5t-101.5 -154.5t-53.5 -116.5t4 -63.5 q16 -15 60.5 6.5t107.5 72t139.5 126.5t156.5 170zM319 245h448l-448 684v-684zM1060 84h-895v1375z" />
<glyph unicode="&#xf013;" d="M1498 1200h-1102v-651h1102v651zM1548 1300q20 0 35 -14.5t15 -35.5v-801q0 -21 -15 -35.5t-35 -14.5h-1202q-21 0 -35.5 14.5t-14.5 35.5v801q0 21 14.5 35.5t35.5 14.5h1202zM1147 298q0 21 -14.5 36t-35.5 15h-301q-7 -1 -16 -6q-8 -5 -17 -15.5t-17 -29.5v-50h401v50 zM1448 198q0 21 -15 35.5t-36 14.5h-901q-21 0 -35.5 -15.5t-14.5 -34.5h1002z" />
<glyph unicode="&#xf014;" horiz-adv-x="1707" d="M1650 1126q0 -25 -13 -58t-38 -58q-12 -13 -34.5 -27t-48.5 -40q0 -12 9 -24.5t9 -24.5q12 -25 22 -38q4 -8 11 -13q12 -12 14 -16t2 -17q-6 0 -9.5 -2.5t-6.5 -5.5t-7 -5.5t-10 -2.5q-12 12 -27 24t-40 25t-50 34t-49 33h-17h-33q-26 0 -48 0.5t-42 3.5t-39 10t-37 19 v34v16q19 -13 37.5 -20t39 -10t42.5 -3.5t47 -0.5h17h33h16q26 -24 50.5 -40.5t49.5 -41.5q-12 24 -16.5 41.5t-16.5 40.5q0 7 2.5 11t5.5 7t5.5 6.5t2.5 9.5q12 6 27 12.5t29.5 12.5t26 12.5t17.5 12.5q12 26 22.5 48.5t10.5 34.5q0 37 -22.5 64t-59.5 52q-38 25 -87.5 46 t-112.5 21t-112.5 -21t-86.5 -46q-19 -6 -32 -15t-22.5 -20t-16.5 -23.5t-13 -24.5q0 12 -10.5 16t-22.5 18q13 25 35.5 49.5t48.5 50.5q49 25 103 37t129 12q63 0 121 -11.5t95 -37.5q51 -37 75.5 -76.5t24.5 -90.5zM221 1110q-63 -38 -97.5 -85t-34.5 -98q0 -38 12 -67 t37 -66q26 -26 63 -50.5t86 -49.5q7 0 13 -5.5t10.5 -13t7.5 -16t3 -14.5q-12 -26 -25 -59t-25 -57q38 24 83 51t83 65h17h49h51q50 0 98.5 6t93.5 16.5t84.5 25.5t71.5 34q63 38 98 87.5t35 112.5q0 51 -35 98t-98 85q-64 38 -156 60.5t-192 22.5t-185 -22.5t-148 -60.5z M554 1275q112 0 209 -24.5t172 -75.5t121 -112t46 -136q0 -77 -46 -146t-121 -120q-38 -19 -81 -37t-91 -32t-100.5 -22.5t-108.5 -8.5h-51q-12 13 -24.5 15t-24.5 2q-12 -18 -30 -34t-38.5 -30t-41.5 -27t-39 -25q-38 -25 -73 -46t-61 -21l-8 2q-8 5 -8 15q-24 26 0 50 q12 12 24.5 26.5t25.5 40.5q11 24 22 48.5t11 49.5q-37 26 -74 53t-75 65t-52.5 84.5t-14.5 97.5q0 75 46 136t121 112t170 75.5t195 24.5z" />
<glyph unicode="&#xf015;" horiz-adv-x="1707" d="M1117 331q0 -14 3 -21.5t8.5 -12.5t12 -9t13.5 -11l-37 -202v-19h-239q-14 0 -16.5 2.5t-2.5 16.5q0 62 13.5 116.5t37.5 99t58 78.5t76 55h17q7 -7 17 -13.5t20.5 -12t20 -8.5t16.5 -3h19v-19q-14 0 -25.5 -11.5t-11.5 -25.5zM1191 461q27 0 53 12.5t47 35t33.5 52.5 t12.5 65q0 28 -11.5 43.5t-25.5 29.5q-7 7 -14.5 10t-19.5 1t-30 -9t-45 -21h-56q-28 0 -44 2.5t-30 16.5q-6 -7 -9.5 -17t-5 -20t-2 -19.5t-0.5 -16.5q0 -35 10 -65t28.5 -52.5t46 -35t62.5 -12.5zM1191 772q-84 0 -111 -55q7 0 17 -2.5t22 -4t25.5 -1t27.5 7.5 q28 13 52.5 18t38.5 19q-7 0 -16.5 3t-19.5 6t-19.5 6t-16.5 3zM1374 626q0 -42 -16 -78.5t-41.5 -64t-58.5 -43.5t-67 -16q-42 0 -76 16t-58 43.5t-37 64t-13 78.5q0 28 2 55t16 54h19q13 42 51.5 58t95.5 16q34 0 67 -13.5t58.5 -37.5t41.5 -58t16 -74zM1319 424 q84 -42 133.5 -132.5t49.5 -216.5v-19h-239q-12 0 -16 9q-2 8 -2 10l-36 202q7 7 13.5 11t11.5 9t8 12.5t3 21.5q0 7 -3 14t-6 12l-4 6t-4 5q-14 0 -16.5 2.5t-2.5 16.5h19q6 0 15.5 3t19.5 8.5t20 12t17 13.5h19zM401 956h643v-74h-643v74zM401 717h441l-37 -91h-404v91z M915 1121h220l-220 221v-221zM749 203q0 -14 9.5 -38.5t9.5 -52.5h-514v1358h642l367 -367v-257h-91v184h-349v349h-478v-1176h404zM713 479v-92h-312v92h312zM401 1214h293v-93h-293v93z" />
<glyph unicode="&#xf016;" d="M1009 1070q0 -20 -13.5 -33.5t-33.5 -13.5h-95q-20 0 -33.5 13.5t-13.5 33.5v48q0 20 13.5 33.5t33.5 13.5h95q20 0 33.5 -13.5t13.5 -33.5v-48zM1068 1023q47 20 79 39.5t53 37.5t32 34.5t16 30.5q11 33 -7 61q-25 30 -48 36.5t-55 -16.5q-11 -8 -22.5 -15.5 t-25.5 -17.5q-23 -17 -55.5 -40.5t-72.5 -54.5l138 171l59 74q12 15 27 24.5t33.5 11t39.5 -8t44 -32.5q55 -56 70 -102.5t4.5 -83.5t-39.5 -65t-62 -46.5t-63 -28t-42 -9.5h-103zM761 1023q-47 20 -79 39.5t-53 37.5t-32.5 34.5t-15.5 30.5q-11 33 7 61q25 30 48 36.5 t55 -16.5q11 -8 22.5 -15.5t25.5 -17.5q23 -17 55.5 -40.5t72.5 -54.5l-138 171l-59 74q-12 15 -27.5 24.5t-33.5 10.5t-39 -8t-44 -32q-56 -56 -71 -102t-4.5 -83.5t39.5 -65.5t62 -46.5t63 -28t42 -9.5h104zM820 692h-332q-20 0 -33.5 -14t-13.5 -34v-426 q0 -20 13.5 -33.5t33.5 -13.5h332v521zM820 976h-426q-20 0 -34 -14t-14 -34v-142q0 -20 14 -33.5t34 -13.5h426v237zM1009 976v-237h426q20 0 34 13.5t14 33.5v142q0 20 -14 34t-34 14h-426zM1009 692v-521h332q20 0 33.5 13.5t13.5 33.5v426q0 20 -13.5 34t-33.5 14h-332z M1151 928h-521v48h521v-48zM1151 644h-521v48h521v-48z" />
<glyph unicode="&#xf017;" horiz-adv-x="1707" d="M1037 1274h-332v-147h332v147zM1478 1127v-147l-515 -221v74h-184v-74l-515 221v147h332v220h551v-220h331zM963 649l515 220v-625h-1214v625l515 -220v-110h184v110z" />
<glyph unicode="&#xf018;" horiz-adv-x="1707" d="M1167 488q39 0 65 -11.5t42.5 -31t23.5 -44t7 -50.5t-7 -50.5t-23.5 -43.5t-42.5 -31t-65 -12q-26 0 -50.5 12t-43.5 31t-31 43.5t-12 50.5t12 50.5t31 44t43.5 31t50.5 11.5zM551 488q38 0 69.5 -11.5t54 -31t35 -44t12.5 -50.5t-12.5 -50.5t-35 -43.5t-54 -31 t-69.5 -12q-26 0 -50.5 12t-44 31t-31.5 43.5t-12 50.5t12 50.5t31.5 44t44 31t50.5 11.5zM448 1139q0 -13 5.5 -31.5t11.5 -41t11.5 -47.5t5.5 -51h103l-34 171h-103zM619 865h-103q13 -26 20 -51t10.5 -47.5t4 -41t0.5 -31.5h102zM688 1139l34 -171h68v171h-102zM928 694 h34l34 171h-68v-171zM928 968h102v171h-102v-171zM1099 694h68q0 13 5.5 31.5t12 41t12 47.5t5.5 51h-103v-171zM1133 968h103q12 26 19 51t10 47.5t4 41t1 31.5h-103zM790 865h-68l34 -171h34v171zM482 557l-206 857h103l34 -172h994l-137 -685h-788z" />
<glyph unicode="&#xf019;" horiz-adv-x="2276" d="M1281 1048h-815v244q2 11 5 17q4 6 11 11.5t21 5.5h778v-278zM1382 1048h416v244q0 4 -0.5 8t-1.5 9q-2 6 -6 11.5t-11 5.5h-397v-278zM479 912h1319v-610q0 -12 -2.5 -22.5t-5.5 -19.5q-6 -16 -17.5 -29t-34.5 -13h-1177q-31 0 -47.5 10.5t-24.5 24.5q-10 17 -10 36v623 zM1615 1016q-1 12 -2 24.5t-3 26.5q-4 23 -12.5 54t-23.5 66q-32 0 -62.5 -11.5t-57.5 -28.5t-50 -37.5t-40 -39.5q-20 15 -43 15q-25 0 -43 -15q-17 19 -40 39.5t-50 37.5t-57.5 28.5t-62.5 11.5q-16 -35 -24.5 -66t-12.5 -54q-2 -14 -3 -26.5t-2 -24.5q1 -12 2 -24.5 t3 -26.5q4 -23 12.5 -54t24.5 -66q26 0 50.5 7t47 19t42.5 27t37 31l-170 -208l150 -72l71 302q15 -5 25 -5q13 0 32 8l82 -296l137 63l-157 192q33 -27 73.5 -47.5t85.5 -20.5q15 35 23.5 66t12.5 54q2 14 3 26.5t2 24.5zM1664 385l150 117q3 3 2 8q-2 4 -6 6l-189 12 l-74 179q-1 4 -7 4t-7 -4l-74 -179l-188 -12q-5 -1 -7 -6t2 -8l150 -117l-50 -191q-2 -5 3 -8q4 -3 9 0l162 105l162 -105q4 -3 9 0t3 8z" />
<glyph unicode="&#xf020;" horiz-adv-x="2525" d="M498 801h164q69 236 206 364q38 36 86 64t106 43.5t126.5 15t148.5 -22.5t171.5 -68t196.5 -122q-129 64 -228.5 86.5t-175 15.5t-129.5 -37.5t-90 -72.5q-85 -97 -109 -266h164l-318 -552zM2016 852l20 -12l-286 -156l-9 -4l-20 -12v16v7v79h-320v141h320v79v6v16z M1497 578h321v-141h-321v-101l-20 11l-9 5l-286 156l20 11l295 161v-102z" />
<glyph unicode="&#xf021;" horiz-adv-x="1701" d="M1091 301q0 -26 23 -43q3 -3 3 -8l-32 -180q0 -6 -7 -6h-219q-3 0 -5 2t-2 6q1 56 13 106t34 92t52.5 74t68.5 52q5 2 9 -1q34 -30 79 -39q4 -2 6 -6q2 -5 -3 -7q-20 -17 -20 -42zM1144 433q28 0 52 11t42 29.5t28.5 43.5t10.5 54q0 22 -6.5 41.5t-17.5 36.5h-3 q-9 4 -16.5 6t-18 0.5t-25 -8t-38.5 -18.5q-23 -13 -48 -13q-23 0 -42 8t-33 16q-8 -16 -13 -33t-5 -36q0 -29 10.5 -54t28.5 -43.5t42.5 -29.5t51.5 -11zM1144 708q-29 0 -54 -12t-43 -32q7 -5 18 -9.5t23 -6.5t25 -1t25 8q27 15 45.5 21.5t33.5 8.5q-32 23 -73 23z M1314 571q0 -36 -13.5 -68t-36.5 -55.5t-54 -37.5t-66 -14t-66 14t-54 37.5t-36.5 55.5t-13.5 68q0 54 30 98l3 6l3 2q23 31 57.5 49.5t76.5 18.5q35 0 66 -13.5t54 -37.5t36.5 -55.5t13.5 -67.5zM1268 396q37 -20 68 -52t52.5 -74t34 -92t13.5 -106q0 -4 -2 -6t-5 -2h-219 q-7 0 -7 6l-32 181q0 4 3 7q23 15 23 43q0 25 -20 42q-5 2 -3 7q1 4 6 6q22 5 42 14.5t37 24.5q4 3 9 1zM431 880h592v-78h-592v78zM431 658h398l-35 -78h-363v78zM899 1024h194l-194 194v-194zM751 194q9 -41 24 -78h-467v1224h580l327 -327v-237q-32 0 -78 -8v178h-316 v316h-436v-1068h366zM718 435l-10 -78h-277v78h287zM431 1103h276v-79h-276v79z" />
<glyph unicode="&#xf022;" horiz-adv-x="1855" d="M1646 575l19 -10l-253 -138l-7 -4l-19 -10v14v6v70h-282v124h282v70v6v14zM1189 334h283v-124h-283v-90l-18 10l-7 4l-253 138l19 10l259 141v-89zM595 877h599v-79h-599v79zM595 652h403l-36 -80h-367v80zM1068 1023h197l-197 196v-196zM919 182q4 -20 10 -39.5 t14 -39.5h-473v1239h587l331 -331v-240q-20 0 -39.5 -2t-39.5 -6v180h-320v320h-440v-1081h370zM885 426l-10 -79h-280v79h290zM595 1102h279v-79h-279v79z" />
<glyph unicode="&#xf023;" horiz-adv-x="2247" d="M389 739h160q38 156 92 271.5t124 195.5q39 44 87 78t105.5 49.5t124.5 9t145 -42t166.5 -104t188.5 -177.5q-118 84 -212 116.5t-167.5 28.5t-128 -37t-93.5 -80q-91 -111 -129 -308h159l-311 -539zM1353 457q0 -31 25 -47q3 -3 3 -8l-34 -195q-1 -7 -8 -7h-238 q-1 1 -2 1q-2 0 -4 1q-1 2 -1 4q0 1 -1 2q2 125 50 216t133 136q5 3 9 -1q38 -32 86 -43q5 0 7 -6q0 -5 -3 -8q-22 -16 -22 -45zM1410 601q30 0 56.5 11.5t46 32t31 47.5t11.5 58q0 23 -7 44.5t-19 39.5q-1 1 -4 1q-10 4 -18 6t-19 0.5t-27 -8.5t-42 -20q-26 -14 -53 -14 q-24 0 -45 8.5t-35 17.5q-20 -35 -20 -75q0 -31 11.5 -58t31 -47.5t45.5 -32t56 -11.5zM1410 899q-32 0 -59 -13t-47 -35q18 -11 45 -18t55 8q29 16 49 23.5t36 9.5q-17 11 -36.5 18t-42.5 7zM1595 750q0 -39 -14.5 -73.5t-39.5 -60t-59 -40.5t-72 -15t-71.5 15t-58.5 40.5 t-39.5 60t-14.5 73.5q0 30 8.5 57t23.5 50q2 4 4 6l2 2q26 34 63.5 54t82.5 20q38 0 72 -15t59 -40.5t39.5 -60t14.5 -73.5zM1544 560q85 -45 132.5 -136.5t51.5 -215.5q0 -3 -3 -6q-2 -2 -6 -2h-237q-8 0 -8 7l-34 195q-2 6 3 8q11 8 18 20.5t7 26.5q0 29 -22 45q-5 3 -3 8 q1 6 6 6q48 11 86 43q4 3 9 1z" />
<glyph unicode="&#xf024;" horiz-adv-x="2234" d="M1127 710l119 -128l-22 -23l-145 128l-2 20l10 193h30zM1112 472q49 0 92 18.5t75.5 51t51 75.5t18.5 92t-18.5 92t-51 75.5t-75.5 51t-92 18.5t-92 -18.5t-75.5 -51t-51 -75.5t-18.5 -92t18.5 -92t51 -75.5t75.5 -51t92 -18.5zM1112 991q58 0 110 -22t90 -60.5t60.5 -90 t22.5 -109.5q0 -59 -22.5 -110.5t-60.5 -89.5t-90 -60.5t-110 -22.5q-59 0 -110 22.5t-89.5 60.5t-60.5 89.5t-22 110.5q0 58 22 109.5t60.5 90t89.5 60.5t110 22zM852 1379q33 0 61.5 -12.5t49.5 -33.5t33 -49.5t12 -60.5v-52h-416q-20 0 -37.5 -5.5t-34.5 -14.5 q-29 -15 -53 -46.5t-30 -89.5v208q0 32 12 60.5t33 49.5t49.5 33.5t60.5 12.5h260zM1684 1067q0 21 -15 36.5t-37 15.5h-1040q-21 0 -36.5 -15.5t-15.5 -36.5v-728q0 -22 15.5 -37t36.5 -15h1040q22 0 37 15t15 37v728zM1632 1223q32 0 60.5 -12.5t49.5 -33.5t33.5 -49.5 t12.5 -60.5v-728q0 -32 -12.5 -60.5t-33.5 -49.5t-49.5 -33.5t-60.5 -12.5h-1040q-32 0 -60.5 12.5t-49.5 33.5t-33 49.5t-12 60.5v728q0 32 12 60.5t33 49.5t49.5 33.5t60.5 12.5h1040z" />
<glyph unicode="&#xf025;" horiz-adv-x="2046" d="M762 1345q32 0 60.5 -12.5t49.5 -33.5t33.5 -49.5t12.5 -60.5v-52h-416q-20 0 -37.5 -5.5t-34.5 -14.5q-29 -16 -53.5 -46.5t-30.5 -89.5v208q0 32 12.5 60.5t33.5 49.5t49.5 33.5t60.5 12.5h260zM1593 1033q0 22 -15 37t-37 15h-1039q-22 0 -37 -15t-15 -37v-727 q0 -22 15 -37t37 -15h1039q22 0 37 15t15 37v727zM1541 1189q32 0 60.5 -12t49.5 -33t33.5 -49.5t12.5 -61.5v-727q0 -32 -12.5 -60.5t-33.5 -49.5t-49.5 -33.5t-60.5 -12.5h-1039q-32 0 -60.5 12.5t-49.5 33.5t-33.5 49.5t-12.5 60.5v727q0 33 12.5 61.5t33.5 49.5t49.5 33 t60.5 12h1039zM1275 594l29 50l-310 185l-29 -50zM1251 559l-310 184l-29 -49l310 -185zM1203 481l-310 184l-30 -49l310 -185zM750 781q26 0 44.5 18.5t18.5 44.5t-18.5 44t-44.5 18t-44.5 -18t-18.5 -44v-3q0 -8 1.5 -15t6.5 -12q8 -15 22.5 -24t32.5 -9zM1423 678 l-208 -351l-459 272q-58 68 -80 121t-24 91q-3 46 13 77q11 16 26.5 27.5t35.5 20.5q34 15 91.5 23t145.5 -9z" />
<glyph unicode="&#xf026;" horiz-adv-x="1708" d="M1140 110v642h105v-642h-105zM423 921h581v-77h-581v77zM423 703h392l-35 -77h-357v77zM883 1062h191l-191 191v-191zM738 247q4 -20 9.5 -38.5t13.5 -37.5h-459v1201h570l321 -321v-233q-20 0 -39 -2t-38 -5v174h-310v310h-427v-1048h359zM705 484l-10 -77h-272v77h282z M1289 370h134v-115h-134v115zM802 370h293v-115h-293v115zM423 1139h271v-77h-271v77z" />
<glyph unicode="&#xf027;" horiz-adv-x="1729" d="M1311 1071l-202 202l101 102q25 25 60.5 25t60.5 -25l81 -81q26 -26 26 -61t-26 -61zM723 482l-203 203l551 546l202 -202zM357 316l124 329l201 -201zM1267 247q21 0 36 -15t15 -36q0 -22 -15 -37t-36 -15h-907q-21 0 -36 15t-15 37q0 21 15 36t36 15h907z" />
<glyph unicode="&#xf028;" horiz-adv-x="2287" d="M1545 426q-12 -6 -14 -25.5t-2.5 -43.5t-4 -47.5t-18.5 -36.5q-9 -11 -31 -14t-46 -2.5t-44 1.5t-24 -1q-13 3 -13 14t2.5 22.5t1.5 20t-16 6.5q-24 -7 -45 -11t-42.5 -6.5t-44.5 -3t-51 -0.5q-20 0 -39 1t-39 3q-3 0 -3.5 -6t-2 -14t-5.5 -15.5t-13 -10.5 q-34 -2 -62.5 -2t-42.5 2q-21 0 -27.5 11t-7 25.5t0.5 27.5t-5 17l-25 9q-5 -2 -5 -7t0.5 -11t-1 -13.5t-8.5 -13.5q-13 -6 -38 -8t-51 -0.5t-47 7.5t-26 16q-8 27 -5.5 46.5t8 33t10 22t0.5 13.5q-35 25 -64.5 55t-56.5 60q-25 28 -46 34.5t-41 7t-40.5 3.5t-43.5 24 q-14 19 -17 50.5t0 63.5t9 57.5t11 31.5q10 13 18.5 14t16.5 1t15.5 5.5t15.5 26.5q7 94 50.5 177t116.5 149l-39.5 39.5t-33.5 44.5t-6.5 46.5t42.5 44.5q27 4 72 -2q35 -5 88 -21t123 -51q42 13 83.5 20.5t75.5 10.5q20 2 38.5 3t36.5 1q130 0 239 -40.5t187 -110 t121.5 -162.5t43.5 -199q0 -64 -8 -119t-29.5 -103t-58 -89.5t-93.5 -78.5zM760 1077q-29 0 -50 -21t-21 -50q0 -30 21 -51t50 -21q30 0 51 21t21 51q0 29 -21 50t-51 21zM1403 1120q-54 18 -104.5 26.5t-92.5 11.5q-48 4 -91 3q-17 0 -29 -12t-12 -29t12 -29t29 -12 q57 5 109 -0.5t92 -14.5q23 -5 45 -11.5t42 -14.5q17 0 29 12t12 29t-12 29t-29 12z" />
<glyph unicode="&#xf029;" horiz-adv-x="1793" d="M1439 826q-24 67 -65 126t-96 106t-121 80.5t-140 50.5q38 55 98 87.5t132 32.5q58 0 109 -22t89 -60t60 -89t22 -109q0 -60 -23 -112.5t-65 -90.5zM900 1123q100 -4 188.5 -45t154 -109t103.5 -158t38 -192q0 -85 -26.5 -161.5t-74.5 -139.5l117 -203l-98 -56l-100 173 q-66 -55 -147.5 -86t-175.5 -31t-174.5 31t-146.5 85l-103 -178l-97 56l119 207q-48 63 -75 139t-27 164q0 101 37.5 190.5t102 157.5t151.5 109t187 46v177q-20 8 -33.5 25t-13.5 40q0 29 21 50t50 21t49.5 -21t20.5 -50q0 -23 -13.5 -40t-33.5 -25v-176zM487 619 q0 -81 31 -152.5t84 -124.5t124.5 -84t152.5 -31t153 31t125 84t84 124.5t31 152.5t-31 153t-84 125t-125 84t-153 31t-152.5 -31t-124.5 -84t-84 -125t-31 -153zM856 535q-20 0 -33.5 13.5t-13.5 33.5v187q0 20 13.5 33.5t33.5 13.5t33.5 -13.5t13.5 -33.5v-140h94 q20 0 33.5 -13.5t13.5 -33.5t-13.5 -33.5t-33.5 -13.5h-141zM327 826q-42 38 -65 90.5t-23 112.5q0 58 22 109t60 89t89 60t109 22q72 0 131.5 -32.5t97.5 -87.5q-74 -17 -140 -50.5t-120.5 -80.5t-95.5 -106t-65 -126z" />
<glyph unicode="&#xf030;" d="M967 1406q135 0 253.5 -51t207 -139.5t139.5 -207t51 -253.5t-51 -253.5t-139.5 -207t-207 -139.5t-253.5 -51t-253.5 51t-207 139.5t-139.5 207t-51 253.5t51 253.5t139.5 207t207 139.5t253.5 51zM967 1279q-108 0 -203.5 -41t-167 -112.5t-112.5 -167t-41 -203.5 t41 -203.5t112.5 -167t167 -112.5t203.5 -41t203.5 41t167 112.5t112.5 167t41 203.5t-41 203.5t-112.5 167t-167 112.5t-203.5 41zM967 1238v-26v26zM967 272v26v-26zM484 755h26h-26zM1450 755h-25h25zM939 786q-17 -17 -18 -38t13 -34l197 -174q7 -6 21.5 -8.5t28.5 11.5 t11.5 28.5t-8.5 21.5l-172 198q-13 15 -34.5 14t-38.5 -18v-1zM966 715q21 0 35 14t13 34l-14 313q0 8 -8 20t-25 12t-24.5 -12t-8.5 -20l-16 -313q-1 -20 13 -34t35 -14zM967 835q33 0 56.5 -23.5t23.5 -56.5t-23.5 -56.5t-56.5 -23.5t-56.5 23.5t-23.5 56.5t23.5 56.5 t56.5 23.5z" />
<glyph unicode="&#xf031;" horiz-adv-x="1707" d="M613 192q-104 46 -185 128q-85 85 -134 197t-49 245t49 245t134 197t197.5 134t244.5 49q56 0 107 -9q32 -5 62 -14t59 -20q61 -23 115 -59t99 -81q85 -85 134 -197t49 -245t-49 -245t-134 -197t-197 -134t-245 -49q-72 0 -139 15q-29 7 -57.5 16t-60.5 24zM1116 1237 q-55 29 -117 44.5t-129 15.5q-17 0 -33 -1t-33 -3q1 -12 0.5 -27.5t-0.5 -34.5q0 -20 -3.5 -27t-10 -9.5t-15.5 -3t-19 -6.5q-9 -6 -16.5 -13t-14 -14t-14 -12t-16.5 -7q-9 -3 -24 -17t-30.5 -30.5t-28 -31.5t-16.5 -21q-5 -5 -10 -15.5t-11 -21.5t-12.5 -20t-14.5 -11 q-9 -2 -11.5 5t-6 17t-12 20t-27.5 13t-30 -7.5t-17.5 -26t-9.5 -33t-6 -29.5q-2 -11 5 -13t17.5 1t23 8.5t21.5 8.5q8 3 10 -1t1 -10.5t-3.5 -14t-2.5 -11.5q1 -8 5.5 -27.5t1.5 -34.5q-2 -9 6.5 -18t18.5 -15q17 19 39 30.5t46 0.5q15 -7 34.5 -15t38.5 -17t35 -18.5 t25 -19.5t24.5 -20t32 -18.5t30 -15.5t19.5 -11q5 -4 16 -7.5t21 -8.5t16 -11t2 -15q-4 -8 -7.5 -14t-7.5 -12.5t-9.5 -16t-12.5 -23.5q-7 -13 -19 -38t-27 -52.5t-32.5 -52.5t-35.5 -39t-28.5 -23t-17.5 -16.5t-11 -15.5t-9 -20q-12 -22 -13.5 -37.5t-10.5 -13.5q-5 0 -9 3 q-5 2 -10.5 6t-10.5 9q-8 23 -12 39.5t-6 27.5q-3 12 -3 20q0 9 -3.5 24t-7.5 31t-7.5 30.5t-3.5 21.5t-1 18.5t-3.5 24t-7.5 24t-13 17.5t-18 16.5t-19 22t-16 23t-8 19.5t-4.5 23t-5 32.5t0.5 35t11 29.5l7 9l-35 21q-15 9 -19 19t-6 18t-17.5 17t-34.5 21q-9 6 -12.5 13 t-4 15t0 16t-0.5 16q-2 7 -1.5 24t8.5 43q-30 -57 -46.5 -119t-16.5 -131q0 -112 42 -208.5t115 -169.5t169.5 -115t208.5 -42t209 42t169 115q73 73 115 169.5t42 208.5q0 94 -28.5 175.5t-82.5 150.5q-8 -12 -16 -23.5t-10 -19.5q-6 -11 -18 -5.5t-18 13.5q-3 4 -11 5 t-18 1h-19t-13 1q-5 1 -12 8t-14.5 16l-15 18l-12.5 15t-10 3t-10.5 -10t-10 -14.5t-8.5 -11.5q-5 -4 -10 -10.5t-10.5 -13t-12 -11t-14.5 -4.5q-7 0 -12 8q-5 6 -10 20t-10 40l16 -16q10 18 11 28q1 2 1 9q-2 10 4.5 8t14.5 0q4 1 8 7t7.5 14.5t6.5 17.5l5 15 q2 7 15.5 18.5t27.5 22.5zM969 860q12 -24 21 -41t16 -26l13 -18q6 -8 28 -7.5t47.5 3.5t47.5 6t28 2q7 -2 8.5 -8t2.5 -16.5t3 -24t9 -28.5q5 -11 7 -33.5t3.5 -51t2.5 -59t3 -56t6 -43t11 -20.5q7 -2 17.5 5.5t22.5 21t23.5 30t21.5 32.5t17.5 29t10.5 20q3 8 7.5 29 t9 49.5t8.5 60.5t7.5 61.5t5.5 52.5t2 33q0 15 -16 38.5t-36.5 46t-38 39.5t-20.5 19t-15 3.5t-26.5 3t-28.5 2.5t-22 3q-16 5 -30 16t-20 13q-7 2 -19 -1t-26 -1t-28 -6t-22 -13t-13 -17t-10 -21q-6 -8 -12 -15t-19 -19q-6 -6 -8 -12t-1 -12t3 -13t3 -16v-13q0 -6 -1 -13.5 t-4 -14.5z" />
<glyph unicode="&#xf032;" horiz-adv-x="2046" d="M1330 249q35 0 66 13.5t54 36.5t36.5 54t13.5 66t-13.5 66t-36.5 54.5t-54 37t-66 13.5t-66 -13.5t-54 -37t-36.5 -54.5t-13.5 -66t13.5 -66t36.5 -54t54 -36.5t66 -13.5zM1551 364q-5 -16 -11.5 -31t-14.5 -31l55 -77l-55 -55l-78 54q-16 -8 -31 -14.5t-31 -11.5 l-16 -93h-79l-15 93q-33 7 -63 26l-77 -54l-55 55l54 77q-9 14 -15 29.5t-11 32.5l-92 17v78l92 16q5 16 11.5 31t14.5 31l-54 77l56 56l76 -55q15 9 30.5 15t32.5 11l15 92h79l16 -93q35 -8 62 -26l77 56l55 -56l-54 -78q8 -14 14.5 -29.5t11.5 -32.5l93 -15v-78zM1329 365 q23 0 39 15.5t16 38.5t-16 39t-39 16t-38.5 -16t-15.5 -39t15.5 -38.5t38.5 -15.5zM1330 548q27 0 50.5 -10t41 -27.5t27.5 -41t10 -50.5t-10 -50t-27.5 -40.5t-41 -27.5t-50.5 -10t-50 5.5t-40 17.5t-26.5 32.5t-9.5 50.5t9.5 57.5t26.5 48t40 33t50 12.5zM670 381 l-305 380l62 50l244 -312q136 91 233 174.5t163 153.5l8 -11q2 -2 10 -15q5 -8 14 -22t23 -34zM645 754l43 -57l336 273l-43 54zM615 795l336 270l-43 54l-336 -270zM548 882l336 270l-43 53l-336 -269zM1073 1263q-11 -29 1.5 -57t42.5 -39q29 -11 56.5 2t39.5 42 q11 28 -2 56.5t-42 39.5l-2 1q-18 7 -34 3q-43 -6 -60 -48zM676 553l-305 380l496 399q51 18 93 26.5t76.5 11t62.5 -1t49 -9.5q50 -15 81 -46q24 -36 28 -89q4 -45 -12 -113t-72 -159z" />
<glyph unicode="&#xf033;" horiz-adv-x="1701" d="M1082 233q26 5 41 22t15 40q0 24 -13.5 40t-43.5 27q-21 8 -29.5 14.5t-8.5 14.5q0 19 28 19q16 0 26 -4t17 -7q2 -2 4 0q2 0 2 2l9 31q1 4 -2 5q-13 7 -44 12v27q0 4 -4 4h-28q-4 0 -4 -4v-29q-25 -6 -39.5 -22t-14.5 -39q0 -28 19 -42t42 -22q19 -7 26.5 -14t7.5 -16 q0 -22 -32 -22q-17 0 -30 5t-20 9q-2 1 -3 0q-3 0 -3 -3l-9 -31q0 -3 2 -5q20 -14 52 -15v-29q0 -4 4 -4h28q5 0 5 4v32zM1065 535q32 1 51 6.5t30 11.5t15.5 10.5t6.5 4.5q45 -13 88 -41t76.5 -66t53.5 -83t20 -93q0 -57 -17.5 -94t-56 -58.5t-101 -30.5t-152.5 -9 t-152.5 8.5t-101.5 30.5t-56.5 59t-17.5 94q0 44 17 87t45.5 79.5t66.5 64.5t81 43q2 1 7.5 -3t17.5 -9t31 -9t48 -3zM966 599q-4 7 -10.5 23t-13.5 33.5t-13.5 32t-9.5 19.5q-9 15 -3.5 29t34.5 11q24 -2 43.5 2t24.5 24q4 15 14 24t21.5 10t22.5 -8t19 -31q4 -12 10.5 -14 t13.5 0t13.5 6.5t11.5 6.5q18 7 27 4.5t12 -9.5t1.5 -16t-5.5 -15q-2 -3 -7.5 -15.5t-11 -29.5t-9.5 -36.5t-2 -35.5q1 -9 -8 -16t-23 -12.5t-29 -8t-26 -2.5t-26 1t-29.5 4t-26 7.5t-15.5 11.5zM389 855h592v-78h-592v78zM857 1059h195l-195 194v-194zM649 229 q9 -41 24 -78h-407v1223h580l327 -326v-167q-20 -1 -39.5 -3t-38.5 -5v107h-316v316h-435v-1067h305zM556 590l-10 -78h-157v78h167zM389 1137h276v-78h-276v78z" />
<glyph unicode="&#xf034;" horiz-adv-x="1918" d="M1377 706l-454 455l-465 -460l-91 90l464 459l83 82l207 -205h183v-181l158 -157zM1262 713v-477h-210l1 310h-262l-1 -310h-218v481l345 334z" />
<glyph unicode="&#xf035;" horiz-adv-x="2060" d="M1243 487q0 -24 -9 -44.5t-24.5 -35.5t-36 -24t-43.5 -9h-555q-23 0 -43.5 9t-36 24t-24.5 35.5t-9 44.5v324q0 24 9 44.5t24.5 35.5t36 24t43.5 9h555q23 0 43.5 -9t36 -24t24.5 -35.5t9 -44.5v-324zM1356 765l-54 -32v-168l54 -32l200 -115v231v231zM767 1117 q0 25 -9.5 47.5t-26 39.5t-39 26.5t-47.5 9.5q-26 0 -48 -9.5t-39 -26.5t-26.5 -39.5t-9.5 -47.5q0 -26 9.5 -48t26.5 -38.5t39 -26t48 -9.5q25 0 47.5 9.5t39 26t26 38.5t9.5 48zM1047 975q-40 0 -75.5 15.5t-62 41.5t-42 61.5t-15.5 75.5t15.5 75.5t42 62t62 42t75.5 15.5 t75.5 -15.5t61.5 -42t41.5 -62t15.5 -75.5t-15.5 -75.5t-41.5 -61.5t-61.5 -41.5t-75.5 -15.5zM1047 1292q-26 0 -48 -9.5t-39 -26.5t-26.5 -39.5t-9.5 -47.5q0 -26 9.5 -48t26.5 -38.5t39 -26t48 -9.5q25 0 47.5 9.5t39 26t26 38.5t9.5 48q0 25 -9.5 47.5t-26 39.5 t-39 26.5t-47.5 9.5zM1243 518q0 -23 -9 -43.5t-24.5 -36t-36 -24.5t-43.5 -9h-555q-23 0 -43.5 9t-36 24.5t-24.5 36t-9 43.5v324q0 24 9 44.5t24.5 36t36 24.5t43.5 9h555q23 0 43.5 -9t36 -24.5t24.5 -36t9 -44.5v-324zM1356 796l-54 -31v-169l54 -31l200 -116v231v231z M767 1149q0 25 -9.5 47.5t-26 39t-39 26t-47.5 9.5q-26 0 -48 -9.5t-39 -26t-26.5 -39t-9.5 -47.5q0 -26 9.5 -48t26.5 -39t39 -26.5t48 -9.5q25 0 47.5 9.5t39 26.5t26 39t9.5 48zM1047 1006q-40 0 -75.5 15.5t-62 41.5t-42 61.5t-15.5 75.5t15.5 76t42 62t62 41.5 t75.5 15.5t75.5 -15.5t61.5 -41.5t41.5 -62t15.5 -76t-15.5 -75.5t-41.5 -61.5t-61.5 -41.5t-75.5 -15.5zM1047 1323q-26 0 -48 -9.5t-39 -26.5t-26.5 -39.5t-9.5 -47.5q0 -26 9.5 -48t26.5 -38.5t39 -26t48 -9.5q25 0 47.5 9.5t39 26t26 38.5t9.5 48q0 25 -9.5 47.5 t-26 39.5t-39 26.5t-47.5 9.5z" />
<glyph unicode="&#xf036;" d="M1438 259h-942v43q0 18 12.5 30.5t30.5 12.5h857q17 0 29.5 -12.5t12.5 -30.5v-43zM1353 302h-771v86q0 17 12.5 30t30.5 13h685q17 0 30 -13t13 -30v-86zM496 1373h942v-43q0 -18 -12.5 -30.5t-29.5 -12.5h-857q-18 0 -30.5 12.5t-12.5 30.5v43zM582 1330h771v-86 q0 -17 -13 -29.5t-30 -12.5h-685q-18 0 -30.5 12.5t-12.5 29.5v86zM782 1246q30 0 74.5 -1t110.5 -1q80 0 131 -0.5t79.5 -2.5t39 -7.5t10.5 -14.5q0 -80 -14 -132t-35.5 -86t-46.5 -55t-46.5 -39.5t-35.5 -38.5t-14 -52t14 -52.5t35.5 -39t46.5 -39.5t46.5 -55.5t35.5 -86 t14 -130.5q0 -17 -11.5 -23t-45.5 -6q-29 0 -76 2t-120 2q-64 0 -109 -1t-76 -1q-47 0 -64.5 5t-17.5 22q0 79 14 130.5t35 85.5t46 55.5t46 40t35 39t14 52.5t-14 52t-35 38.5t-46 40t-46 55.5t-35 86t-14 131q0 17 15.5 22t59.5 5zM782 1315q-16 0 -40.5 -1.5t-47.5 -10.5 t-39.5 -28.5t-16.5 -55.5q0 -85 15 -144t38 -99t49 -65.5t49 -44.5q13 -11 20.5 -18t11.5 -12.5t5 -9.5t1 -10q0 -11 -6.5 -20t-32.5 -31q-23 -19 -49 -44.5t-48.5 -66t-37.5 -99t-15 -142.5q0 -36 16.5 -55.5t40.5 -28.5t50 -10.5t44 -1.5q13 0 28 0.5t33 0.5q26 1 56 1h68 q45 0 78.5 -1t61.5 -2q17 0 31 -0.5t25 -0.5q127 0 127 98q0 84 -15.5 143t-38.5 99.5t-49.5 66.5t-49.5 44q-28 22 -33.5 31.5t-5.5 18.5q0 5 1 9.5t5 9.5t11.5 12t20.5 18q23 19 50 44.5t50 66t38.5 99t15.5 144.5q0 14 -4.5 29t-17 27.5t-35 22t-57.5 12.5q-30 2 -80 2.5 t-136 0.5q-38 0 -69 1t-57 1h-59zM983 745q0 38 8.5 66.5t21 49.5t27 37t27 30t21 28t8.5 31h-255q0 -21 17.5 -39t38.5 -43t38.5 -62.5t17.5 -97.5q0 -26 -11.5 -47t-28.5 -41.5t-37.5 -42.5t-37.5 -48.5t-28.5 -59t-11.5 -75.5h339q0 42 -11.5 75t-28.5 59.5t-37 48.5 t-37 42.5t-28.5 42t-11.5 46.5z" />
<glyph unicode="&#xf037;" horiz-adv-x="1516" d="M893 1077q0 34 -13 63.5t-35 51.5t-52 35t-64 13t-63.5 -13t-51.5 -35t-35 -51.5t-13 -63.5h-109q0 56 21.5 105.5t58.5 86t86.5 58t105.5 21.5t105.5 -21.5t86.5 -58t58.5 -86t21.5 -105.5h-108zM501 988q-38 0 -70.5 -14t-57.5 -39t-39 -58t-14 -70v-287 q0 -38 14 -70.5t39 -57.5t57.5 -39t70.5 -14h457q37 0 70 14t57.5 39t38.5 57.5t14 70.5v287q0 37 -14 70t-38.5 58t-57.5 39t-70 14h-457zM786 551h-114v271h114v-271zM893 1104q0 34 -13 63.5t-35 52t-52 35.5t-64 13t-63.5 -13t-51.5 -35.5t-35 -52t-13 -63.5h-109 q0 56 21.5 105.5t58.5 86.5t86.5 58.5t105.5 21.5t105.5 -21.5t86.5 -58.5t58.5 -86.5t21.5 -105.5h-108zM501 1015q-38 0 -70.5 -14t-57.5 -38.5t-39 -57.5t-14 -70v-288q0 -38 14 -70.5t39 -57t57.5 -38.5t70.5 -14h457q37 0 70 14t57.5 38.5t38.5 57t14 70.5v288 q0 37 -14 70t-38.5 57.5t-57.5 38.5t-70 14h-457zM786 578h-114v271h114v-271z" />
<glyph unicode="&#xf038;" horiz-adv-x="2021" d="M1003 1262l145 -343l371 -33l-280 -244l83 -363l-319 191l-320 -191l84 363l-281 244l371 33z" />
<glyph unicode="&#xf039;" d="M1147 884q0 -23 -9 -43.5t-24 -35.5t-35.5 -24t-43.5 -9h-150q-23 0 -43.5 9t-35.5 24t-24 35.5t-9 43.5v375q0 23 9 43.5t24 35.5t35.5 24t43.5 9h150q23 0 43.5 -9t35.5 -24t24 -35.5t9 -43.5v-375zM1043 659q-31 -31 -49 -46.5t-33.5 -15.5t-33 15.5t-48.5 46.5 l-246 246q-35 34 -28.5 44t46.5 10h620q18 0 29.5 -2t14.5 -8t-3 -16.5t-23 -27.5zM1372 660v-150q0 -16 -11 -27t-26 -11h-750q-15 0 -26 11t-11 27v150h-75v-150q0 -23 9 -43.5t24 -36t35.5 -24.5t43.5 -9h750q23 0 43.5 9t35.5 24.5t24 36t9 43.5v150h-75z" />
<glyph unicode="&#xf040;" d="M796 1053q0 23 9 43.5t24.5 35.5t36 24t43.5 9h149q23 0 43.5 -9t35.5 -24t24 -35.5t9 -43.5v-374q0 -23 -9 -43.5t-24 -35.5t-35.5 -24t-43.5 -9h-149q-23 0 -43.5 9t-36 24t-24.5 35.5t-9 43.5v374zM901 1278q30 30 48 45.5t33.5 15.5t33.5 -15t49 -46l245 -246 q34 -34 28 -44t-46 -10h-619q-18 0 -29.5 2t-14.5 8t3 16.5t23 27.5zM1395 641v-149q0 -16 -11 -27t-27 -11h-748q-15 0 -26 11t-11 27v149h-75v-149q0 -23 9 -43.5t24 -35.5t35.5 -24t43.5 -9h748q23 0 43.5 9t36 24t24.5 35.5t9 43.5v149h-75z" />
<glyph unicode="&#xf041;" d="M1020 1413q61 0 121.5 -14t118.5 -44q115 -61 186 -160.5t91 -220.5l-577 -105l59 544h1zM1061 978l366 66q-29 75 -82 134.5t-126 97.5q-30 16 -60 26t-61 15zM878 786l577 106q14 -81 3 -164t-53 -163q-50 -96 -131 -162.5t-177 -97.5t-199.5 -24t-200.5 57t-163 130.5 t-97 176.5t-24 200t57 201q35 67 85.5 120t111.5 89.5t129.5 56t140.5 19.5z" />
<glyph unicode="&#xf042;" horiz-adv-x="2097" d="M575 1207q-14 0 -23.5 9t-9.5 23v66q0 14 9.5 23.5t23.5 9.5h66q14 0 23 -9.5t9 -23.5v-66q0 -14 -9 -23t-23 -9h-66zM575 910q-14 0 -23.5 9.5t-9.5 23.5v65q0 14 9.5 23.5t23.5 9.5h66q14 0 23 -9.5t9 -23.5v-65q0 -14 -9 -23.5t-23 -9.5h-66zM575 653q-14 0 -23.5 9.5 t-9.5 23.5v66q0 14 9.5 23t23.5 9h66q14 0 23 -9t9 -23v-66q0 -14 -9 -23.5t-23 -9.5h-66zM575 357q-14 0 -23.5 9.5t-9.5 23.5v65q0 14 9.5 23.5t23.5 9.5h66q14 0 23 -9.5t9 -23.5v-65q0 -14 -9 -23.5t-23 -9.5h-66zM1645 1268h-803h803zM1645 985h-803h803zM1645 701 h-803h803zM1645 418h-803h803z" />
<glyph unicode="&#xf043;" d="M1463 645q17 0 28.5 -11t11.5 -28v-80q0 -17 -11.5 -28.5t-28.5 -11.5h-159v-159q0 -17 -11.5 -28.5t-28.5 -11.5h-80q-17 0 -28.5 11.5t-11.5 28.5v159h-159q-17 0 -28.5 11.5t-11.5 28.5v80q0 17 11.5 28t28.5 11h159v160q0 17 11.5 28t28.5 11h80q17 0 28.5 -11 t11.5 -28v-160h159zM1065 348q-82 -14 -159 -14q-89 0 -167.5 15t-137 41t-92.5 61t-34 75v146q0 -38 31 -71.5t85 -59t127 -41t157 -18.5q13 -33 42.5 -54t67.5 -21h80v-59zM866 534q-82 3 -153.5 19.5t-124 42t-83 59t-30.5 70.5v146q0 -39 32.5 -73t89.5 -60t133 -41.5 t163 -16.5q-27 -32 -27 -74v-72zM1336 924q0 -12 -3 -22q-31 22 -69 22h-80h-2q72 26 113 63.5t41 82.5v-146zM906 931q-89 0 -167.5 15t-137 41t-92.5 61t-34 75t34 75t92.5 61t137 41t167.5 15q88 0 166.5 -15t137 -41t92.5 -61t34 -75t-34 -75t-92.5 -61t-137 -41 t-166.5 -15zM906 732q-89 0 -167.5 15t-137 41t-92.5 61t-34 75v146q0 -39 34 -74t92.5 -61t137 -41t167.5 -15q58 0 111 6.5t101 18.5q-24 -16 -38.5 -42t-14.5 -57v-59q-82 -14 -159 -14z" />
<glyph unicode="&#xf044;" d="M1524 608q9 -56 -4 -109.5t-44 -97t-77 -73t-103 -38.5q-56 -9 -108.5 4t-95.5 44t-73 77t-40 103q-8 42 -2 83t23 78l74 -14q-17 -30 -24.5 -64.5t-0.5 -71.5q7 -42 29 -76t54 -57t71.5 -33t81.5 -3t76 29t57 54t33 71.5t3 81.5t-29 76.5t-54.5 57.5t-71.5 32.5t-81 2.5 q-13 -2 -24 -5t-22 -8l-41 59q34 18 75 24q56 9 109.5 -4.5t97 -44t73 -76.5t38.5 -102zM1251 684v244l-162 -122zM904 477q11 -42 30.5 -79.5t46.5 -68.5q-14 -1 -27 -1.5t-27 -0.5q-91 0 -171 15.5t-139.5 41.5t-94 61.5t-34.5 76.5v149q0 -39 32.5 -73.5t89 -60.5 t132 -42t162.5 -18zM896 530q-86 3 -160 19t-129.5 42.5t-87 60.5t-31.5 73v149q0 -40 33.5 -75t91 -61t135 -42t166.5 -17q-24 -72 -18 -149zM927 733q-91 0 -171 15.5t-139.5 41.5t-94 61.5t-34.5 76.5v149q0 -41 34.5 -76.5t94 -61.5t139.5 -41.5t171 -15.5q38 0 73 2.5 t69 7.5l-29 -21q-32 -23 -32 -65q0 -27 17 -50l-9 2q-22 5 -42 -2.5t-34 -22.5h-13zM1365 928q0 -17 -4 -26l-29 9v17q0 32 -22 54q26 21 40.5 45t14.5 50v-149zM927 935q-91 0 -171 15.5t-139.5 42t-94 62t-34.5 75.5t34.5 76t94 62.5t139.5 42t171 15.5t170.5 -15.5 t139 -42t94 -62.5t34.5 -76q0 -35 -26 -66t-72 -57q-38 8 -65 -14l-32 -25q-54 -16 -114 -24.5t-129 -8.5z" />
<glyph unicode="&#xf045;" d="M935 492q90 0 169.5 15.5t139 41.5t93.5 61.5t34 75.5v-148q0 -40 -34 -75.5t-93.5 -61.5t-139 -41.5t-169.5 -15.5t-169.5 15.5t-139 41.5t-93.5 61.5t-34 75.5v148q0 -40 34 -75.5t93.5 -61.5t139 -41.5t169.5 -15.5zM935 694q90 0 169.5 15.5t139 41.5t93.5 61.5 t34 75.5v-148q0 -41 -34 -76t-93.5 -61.5t-139 -41.5t-169.5 -15t-169.5 15t-139 41.5t-93.5 61.5t-34 76v148q0 -40 34 -75.5t93.5 -61.5t139 -41.5t169.5 -15.5zM935 896q90 0 169.5 15t139 41.5t93.5 61.5t34 76v-149q0 -40 -34 -75.5t-93.5 -61.5t-139 -41.5 t-169.5 -15.5t-169.5 15.5t-139 41.5t-93.5 61.5t-34 75.5v149q0 -41 34 -76t93.5 -61.5t139 -41.5t169.5 -15zM935 1337q90 0 169.5 -15.5t139 -41.5t93.5 -61.5t34 -75.5t-34 -75.5t-93.5 -61.5t-139 -41.5t-169.5 -15.5t-169.5 15.5t-139 41.5t-93.5 61.5t-34 75.5 t34 75.5t93.5 61.5t139 41.5t169.5 15.5z" />
<glyph unicode="&#xf046;" horiz-adv-x="1342" d="M602 1135q20 0 40 1.5t42 1.5q20 0 40 -0.5t39 -1.5v45q0 15 -1.5 25.5t-4.5 10.5h-42h-74h-42q-3 0 -5 -10.5t-2 -25.5v-46h10zM824 1131q43 -5 79 -12t62 -15.5t40.5 -18.5t14.5 -22v-54q0 -17 -32 -32q-42 -20 -121.5 -31.5t-182.5 -11.5t-182.5 12t-121.5 31 q-31 15 -31 32v54q0 22 50.5 39.5t131.5 27.5v112q0 15 11 26t26 11h220q15 0 25.5 -11t10.5 -26v-111zM979 883v-1v-2l-23 -470q-1 -14 -11.5 -30t-40 -30t-82.5 -23t-138 -9q-86 0 -138.5 9t-82 23t-40 30t-11.5 30l-23 470v2v1v2q2 6 7 11q11 -11 37.5 -17.5t64.5 -10.5 t85.5 -5t100.5 -1t100.5 1t85.5 5t64.5 10.5t37.5 17.5q5 -5 7 -11v-2z" />
<glyph unicode="&#xf047;" d="M579 855h592v-78h-592v78zM1047 1059h195l-195 194v-194zM839 229q9 -41 24 -78h-407v1223h580l327 -326v-167q-20 -1 -39.5 -3t-38.5 -5v107h-316v316h-435v-1067h305zM746 590l-10 -78h-157v78h167zM579 1137h276v-78h-276v78zM1485 570q16 0 26.5 -10.5t10.5 -25.5 v-331q0 -16 -10.5 -26.5t-26.5 -10.5h-73v129q0 18 -19 18q-18 0 -18 -18v-129h-74v129q0 18 -18 18t-18 -18v-129h-74v129q0 18 -18 18q-19 0 -19 -18v-129h-73v129q0 18 -19 18q-18 0 -18 -18v-129h-74q-15 0 -25.5 10.5t-10.5 26.5v331q0 15 10.5 25.5t25.5 10.5h148v74 q0 15 10.5 26t25.5 11h147q16 0 26.5 -11t10.5 -26v-74h147z" />
<glyph unicode="&#xf048;" d="M1338 1242h-117v-117h117v117zM1455 1359v-351h-351v351h351zM1377 1281h-195v-195h195v195zM675 579h-117v-117h117v117zM792 696v-351h-351v351h351zM714 618h-195v-195h195v195zM1026 852h78v78h-78v-78zM1065 852h78v78h-78v-78zM1143 852h78v78h-78v-78zM870 774h78 v78h-78v-78zM1299 657h78v78h-78v-78zM1377 579h78v78h-78v-78zM1299 501h78v78h-78v-78zM1377 501h78v78h-78v-78zM1299 423h78v78h-78v-78zM1377 345h78v78h-78v-78zM1182 657h78v78h-78v-78zM1260 579h78v78h-78v-78zM1182 501h78v78h-78v-78zM1260 501h78v78h-78v-78z M1182 423h78v78h-78v-78zM1299 579h78v78h-78v-78zM1221 657h78v78h-78v-78zM1104 345h78v78h-78v-78zM1260 345h78v78h-78v-78zM1104 657h78v78h-78v-78zM1026 579h78v78h-78v-78zM1104 579h78v78h-78v-78zM1026 501h78v78h-78v-78zM1104 423h78v78h-78v-78zM870 657h78v78 h-78v-78zM1026 774h78v78h-78v-78zM1065 774h78v78h-78v-78zM1221 774h78v78h-78v-78zM1299 852h78v78h-78v-78zM1377 774h78v78h-78v-78zM948 579h78v78h-78v-78zM870 501h78v78h-78v-78zM948 501h78v78h-78v-78zM870 423h78v78h-78v-78zM948 345h78v78h-78v-78zM909 852 h-78v-78h78v78zM831 852h-78v-78h78v78zM1026 1008h-78v-78h78v78zM1026 930h-78v-78h78v78zM987 930h-78v-78h78v78zM792 930h-78v-78h78v78zM753 930h-78v-78h78v78zM1377 852h-78v-78h78v78zM675 852h-78v-78h78v78zM1104 930h-78v-78h78v78zM1026 1047h-78v-78h78v78z M909 930h-78v-78h78v78zM831 930h-78v-78h78v78zM675 930h-78v-78h78v78zM597 852h-78v-78h78v78zM519 930h-78v-78h78v78zM948 1125h-78v-78h78v78zM1026 1203h-78v-78h78v78zM948 1203h-78v-78h78v78zM1026 1281h-78v-78h78v78zM948 1359h-78v-78h78v78zM675 1242h-117 v-117h117v117zM792 1359v-351h-351v351h351zM714 1281h-195v-195h195v195z" />
<glyph unicode="&#xf049;" d="M692 1104q-14 0 -24.5 10.5t-10.5 24.5v108q0 15 10.5 25.5t24.5 10.5q15 0 25.5 -10.5t10.5 -25.5v-108q0 -14 -10.5 -24.5t-25.5 -10.5zM1195 1211v-72q0 -29 -21 -50t-51 -21q-29 0 -50.5 21t-21.5 50v72h-287v-72q0 -29 -21 -50t-51 -21q-29 0 -50 21t-21 50v72h-72 q-23 0 -42.5 -8.5t-34 -23t-23 -34t-8.5 -41.5v-647q0 -22 8.5 -41.5t23 -34t34 -23t42.5 -8.5h718q22 0 41.5 8.5t34 23t23 34t8.5 41.5v647q0 22 -8.5 41.5t-23 34t-34 23t-41.5 8.5h-72zM1303 457q0 -14 -10.5 -24.5t-25.5 -10.5h-718q-15 0 -25.5 10.5t-10.5 24.5v503 h790v-503zM1123 1104q-15 0 -25.5 10.5t-10.5 24.5v108q0 15 10.5 25.5t25.5 10.5t25.5 -10.5t10.5 -25.5v-108q0 -14 -10.5 -24.5t-25.5 -10.5zM1065 879q-8 5 -17 3.5t-14 -9.5l-176 -260l-81 81q-7 7 -15.5 7t-15.5 -7l-31 -31q-6 -6 -6 -15t6 -15l125 -125 q12 -12 28 -12q15 0 26 15l213 313q5 8 3.5 17t-9.5 14z" />
<glyph unicode="&#xf050;" horiz-adv-x="2281" d="M1352 976q-20 0 -35 15t-15 35.5t15 35.5l349 349q15 15 35.5 15t35.5 -15t15 -35.5t-15 -35.5l-349 -349q-15 -15 -36 -15zM1548 1073l-132 -131q-15 -14 -34 -22.5t-40 -8.5q-43 0 -74 31q-27 27 -30.5 64t16.5 67h-220q20 -30 16.5 -67t-30.5 -64q-31 -31 -74 -31 q-44 0 -75 31l-131 131h-209q-21 0 -36 -15t-15 -36v-153q0 -21 15 -36t36 -15h51v-51l13 -53l89 -355q12 -21 23 -36t29 -15h816q22 0 32 14.5t19 36.5l90 355l13 53v51h51q21 0 36 15t15 36v153q0 21 -15 36t-36 15h-209zM991 461q0 -21 -15 -36t-36 -15t-36 15t-15 36 v306q0 21 15 36t36 15t36 -15t15 -36v-306zM1195 461q0 -21 -15 -36t-36 -15t-36 15t-15 36v306q0 21 15 36t36 15t36 -15t15 -36v-306zM1399 461q0 -21 -15 -36t-36 -15t-36 15t-15 36v306q0 21 15 36t36 15t36 -15t15 -36v-306zM935 976q21 0 36 15t15 35.5t-15 35.5 l-349 349q-15 15 -35.5 15t-35.5 -15t-15 -35.5t15 -35.5l349 -349q15 -15 35 -15z" />
<glyph unicode="&#xf051;" horiz-adv-x="1927" d="M977 591q37 0 69.5 14t57 38.5t38.5 57t14 69.5t-14 69.5t-38.5 57t-57 38.5t-69.5 14t-69.5 -14t-57 -38.5t-38.5 -57t-14 -69.5t14 -69.5t38.5 -57t57 -38.5t69.5 -14zM1337 680q-14 -54 -42 -102l91 -125l-91 -91l-127 89q-22 -13 -47 -24t-54 -19l-27 -152h-128 l-26 152q-54 13 -102 42l-126 -88l-90 91l89 124q-14 24 -25 49.5t-18 53.5l-151 27v128l151 25q7 28 18 53.5t25 48.5l-88 126l91 91l125 -89q46 28 102 42l25 151h128l27 -152q55 -14 101 -42l126 90l90 -91l-89 -127q28 -46 42 -101l153 -25v-128z" />
<glyph unicode="&#xf052;" horiz-adv-x="1954" d="M558 1124q-17 0 -29.5 12.5t-12.5 29.5v43q0 17 12.5 29.5t29.5 12.5h849q18 0 30.5 -12.5t12.5 -29.5v-43q0 -17 -12.5 -29.5t-30.5 -12.5h-849zM517 996l-74 -211q0 -17 6.5 -25.5t14.5 -12.5q5 -2 10.5 -3t11.5 -2q5 1 9.5 2t8.5 3q7 4 13 12.5t6 25.5l63 211h-69z M689 996l-46 -211q0 -17 6.5 -25.5t14.5 -12.5q5 -2 10 -3t11 -2l10 2t10 3q8 4 14 12.5t4 25.5l35 211h-69zM862 996l-19 -211q0 -17 6 -25.5t14 -12.5q5 -2 10 -3t11 -2q5 1 9.5 2t9.5 3q7 4 13 12.5t7 25.5l8 211h-69zM1034 996l8 -211q1 -17 7 -25.5t14 -12.5 q5 -2 10 -3l10 -2q6 1 11 2t10 3q8 4 14 12.5t4 25.5l-19 211h-69zM1207 996l35 -211q1 -17 7.5 -25.5t14.5 -12.5q5 -2 10 -3l10 -2l10 2t9 3q7 4 12.5 12.5t6.5 25.5l-46 211h-69zM1379 996l63 -211q-1 -17 5.5 -25.5t14.5 -12.5q5 -2 10 -3t11 -2q6 1 11 2t10 3 q8 4 14 12.5t4 25.5l-74 211h-69zM516 954v85q0 17 12.5 29.5t29.5 12.5h849q18 0 30.5 -12.5t12.5 -29.5v-85h-934zM1441 784v-3q0 -25 -17.5 -42.5t-42.5 -17.5t-42.5 17.5t-17.5 42.5v3h-79v-3q0 -25 -17.5 -42.5t-42.5 -17.5t-42.5 17.5t-17.5 42.5v3h-80q0 -1 0.5 -1.5 t0.5 -1.5q0 -25 -17.5 -42.5t-42.5 -17.5q-26 0 -43.5 17.5t-17.5 42.5q0 1 0.5 1.5t0.5 1.5h-80v-3q0 -25 -17.5 -42.5t-42.5 -17.5t-42.5 17.5t-17.5 42.5v3h-80v-3q0 -25 -17.5 -42.5t-42.5 -17.5t-42.5 17.5t-17.5 42.5v3h-7v-552q0 -17 12.5 -29.5t29.5 -12.5h552v424 h212v-424h85q18 0 30.5 12.5t12.5 29.5v552h-9zM983 317h-340v297h340v-297z" />
<glyph unicode="&#xf053;" horiz-adv-x="2232" d="M1323 1146q51 0 93 -16.5t72.5 -46.5t47.5 -72.5t17 -94.5q0 -60 -22 -110t-58.5 -94t-83.5 -84.5t-96.5 -81.5t-98.5 -83.5t-89 -90.5h-2q-40 48 -88.5 90.5t-98.5 83.5t-97 81.5t-83.5 85t-58.5 94.5t-22 109q0 52 17 94.5t47.5 72.5t72.5 46.5t93 16.5q17 0 35 -4.5 t37 -12.5q32 -14 70.5 -41.5t76.5 -79.5q37 52 76 79.5t71 41.5q19 8 37 12.5t35 4.5z" />
<glyph unicode="&#xf054;" horiz-adv-x="1992" d="M1423 1242q17 -12 21 -31.5t-8 -36.5l-477 -704q-11 -16 -26.5 -25.5t-32.5 -9.5t-34 8t-28 19l-281 281q-14 14 -14 34.5t14 34.5l70 69q14 14 34.5 14t34.5 -14l182 -182l396 585q12 17 31.5 20.5t36.5 -7.5z" />
<glyph unicode="&#xf055;" d="M1212 484q-11 -11 -28 -11.5t-28 11.5l-209 210l-210 -210q-12 -12 -28.5 -11.5t-27.5 11.5l-84 84q-12 12 -12 28t12 28l210 210l-210 210q-11 11 -11.5 28t11.5 28l84 83q12 11 28 11.5t28 -11.5l209 -209l210 209q12 12 28 11.5t28 -11.5l84 -83q12 -11 11.5 -28 t-11.5 -28l-210 -210l210 -210q11 -11 11.5 -27.5t-11.5 -28.5z" />
<glyph unicode="&#xf056;" horiz-adv-x="2271" d="M657 717l166 166h121l-166 -166l166 -166h-121zM1591 717l-167 -167h-122l167 167l-167 167h122zM1264 755q14 14 14 34t-14 34t-33.5 14t-33.5 -14l-169 -169q-14 -14 -14 -34t14 -34t33.5 -14t33.5 14zM1660 1028h-1051v-669q0 -20 14 -34t34 -14h956q20 0 33.5 14 t13.5 34v669zM1613 1267q30 0 56 -11.5t45.5 -31t30.5 -45.5t11 -56v-764q0 -30 -11 -56t-30.5 -45.5t-45.5 -30.5t-56 -11h-956q-30 0 -56 11t-45.5 30.5t-30.5 45.5t-11 56v764q0 30 11 56t30.5 45.5t45.5 31t56 11.5h956z" />
<glyph unicode="&#xf057;" horiz-adv-x="1935" d="M1137 721q13 -16 13 -59t-13 -59q-8 -11 -25 -11q-16 0 -24 11q-13 19 -13 59t13 59q7 12 24 12q16 0 25 -12zM768 991q-16 0 -25 -12q-13 -19 -13 -59q0 -39 13 -58q9 -12 25 -12t25 12q13 19 13 58q0 40 -13 59q-9 12 -25 12zM1462 619l10 -122q2 -13 -5.5 -24 t-19.5 -13l-199 -34l-48 -113q-5 -11 -16 -17t-23 -4l-121 25l-95 -78q-11 -8 -22 -8t-22 8l-95 78l-121 -25q-12 -2 -23 4t-16 17l-48 113l-182 34q-12 2 -19 13t-6 24l10 122l-89 85q-9 9 -10.5 21.5t5.5 23.5l66 103l-39 117q-5 12 -0.5 23t15.5 18l107 62l19 121 q1 6 14 11.5t29.5 9.5t32 6.5t21.5 2.5l123 4l74 99q8 11 20 13t23 -3l111 -52l111 52q11 5 23 3t20 -13l74 -99l123 -4q6 0 24 -2.5t37.5 -6.5t35.5 -9.5t17 -11.5l19 -121l107 -62q25 -14 16 -41l-40 -117l66 -103q7 -11 5.5 -23.5t-10.5 -21.5zM767 795q59 0 93 34t34 94 q0 59 -34 93t-93 34q-42 0 -70 -16q-30 -17 -44 -47t-14 -64q0 -35 14 -65t44 -47q28 -16 70 -16zM1113 1046h-69l-275 -510h68zM1242 663q0 56 -35 91q-33 34 -93 34q-42 0 -70 -16q-14 -8 -25.5 -19.5t-18.5 -26.5q-14 -30 -14 -63q0 -34 14 -64q7 -15 18.5 -26.5 t25.5 -19.5q28 -16 70 -16q60 0 93 34q35 35 35 92z" />
<glyph unicode="&#xf058;" horiz-adv-x="2047" d="M1456 224q28 0 53.5 11t44.5 30t30 44.5t11 54.5t-11 54.5t-30 44.5t-44.5 30t-53.5 11q-29 0 -55 -11t-45 -30t-30 -44.5t-11 -54.5t11 -54.5t30 -44.5t45 -30t55 -11zM1636 319q-3 -14 -8.5 -26t-12.5 -26l45 -62l-45 -46l-64 44q-22 -13 -50 -21l-14 -76h-64l-13 76 q-30 8 -52 21l-63 -44l-45 46l44 62q-8 14 -13 26t-8 26l-76 14v64l76 12q6 34 22 52l-44 64l45 45l63 -45q11 7 23.5 12t27.5 9l13 77h64l13 -77q15 -4 27.5 -9t23.5 -12l64 45l45 -46l-45 -63q7 -14 12 -26t9 -26l77 -12v-64zM1454 320q19 0 32 13t13 31q0 19 -13 31.5 t-32 12.5q-18 0 -31 -12.5t-13 -31.5q0 -18 13 -31t31 -13zM1456 470q45 0 74.5 -30.5t29.5 -75.5t-29.5 -75.5t-74.5 -30.5t-74.5 19t-29.5 68q0 25 8 47.5t22 39.5t33 27.5t41 10.5zM1146 1279q-24 0 -38.5 13t-28 28.5t-31.5 28.5t-49 13q-35 0 -55.5 -24.5t-31 -61.5 t-13.5 -81.5t-3 -83.5zM443 866q-23 15 -35.5 37.5t-15 47t4 48t21.5 40.5t36 26t44.5 9.5t46 -8t40.5 -26.5zM1348 866q23 15 35 37.5t14.5 46.5t-4 47.5t-21.5 41.5t-36 27t-44 9t-46 -8.5t-41 -26.5zM1272 1397q24 0 45 -9.5t37 -25.5t25 -37.5t9 -45.5t-9 -45.5 t-25 -37.5t-37 -25.5t-45 -9.5q-25 0 -46.5 9.5t-37.5 25.5t-25 37.5t-9 45.5t9 45.5t25 37.5t37.5 25.5t46.5 9.5zM1272 1355q-32 0 -54 -22.5t-22 -53.5q0 -32 22 -54t54 -22q30 0 52.5 22t22.5 54q0 31 -22.5 53.5t-52.5 22.5zM896 627q64 0 117.5 14t89.5 37 q-9 -20 -29 -39.5t-47.5 -34.5t-61 -24t-69.5 -9q-38 0 -71 9t-60 24t-47 34.5t-30 39.5q36 -23 90.5 -37t117.5 -14zM652 861q0 32 22 54t54 22t54 -22t22 -54t-22 -54t-54 -22t-54 22t-22 54zM1138 861q0 32 -22 54t-54 22t-54 -22t-22 -54t22 -54t54 -22t54 22t22 54z M896 1145q102 0 192 -27.5t156.5 -74.5t105 -110t38.5 -135t-38.5 -135t-105 -110t-156.5 -74.5t-192 -27.5t-192 27.5t-157 74.5t-106 110t-39 135t39 135t106 110t157 74.5t192 27.5zM896 1079q-87 0 -165 -22.5t-136.5 -60.5t-92.5 -89t-34 -109q0 -57 34 -108 t92.5 -89.5t136.5 -60.5t165 -22q85 0 162.5 22t136 60.5t93 89.5t34.5 108q0 58 -34.5 109t-93 89t-136 60.5t-162.5 22.5z" />
<glyph unicode="&#xf059;" horiz-adv-x="1881" d="M1366 986l-352 88l105 79q-32 33 -72.5 51.5t-84 22t-87 -8.5t-80.5 -40q-31 -23 -55 -56l-45 30q17 48 46 88t71 72q54 40 116 56.5t123.5 10.5t119 -34.5t101.5 -77.5l89 67zM403 833q-18 -63 -11 -126.5t35 -119t75 -99t110 -67.5q51 -20 100.5 -22t97.5 9l1 54 q-19 2 -38 5.5t-38 10.5q-44 16 -77.5 46.5t-54 69t-26.5 83t5 88.5l123 -46l-115 344l-291 -191zM1181 305q64 12 118 46t91.5 83.5t56 111t12.5 127.5q-5 54 -24.5 100t-50.5 84l-49 -23q16 -35 19 -75q4 -47 -8.5 -90.5t-38 -78.5t-62.5 -60t-82 -35l-12 131l-259 -254 l299 -178z" />
<glyph unicode="&#xf060;" horiz-adv-x="2757" d="M1495 1309q34 0 64.5 -13t53.5 -36t36 -53.5t13 -64.5v-308q0 -35 -13 -65t-36 -53t-53.5 -36t-64.5 -13h-478l-136 -137v137h-23q-35 0 -65 13t-53 36t-36 53t-13 65v308q0 34 13 64.5t36 53.5t53 36t65 13h637zM944 1057q-25 0 -42 -17t-17 -41q0 -25 17 -42t42 -17 q24 0 41.5 17t17.5 42q0 24 -17.5 41t-41.5 17zM1445 1057q-24 0 -41.5 -17t-17.5 -41q0 -25 17.5 -42t41.5 -17q25 0 42 17t17 42q0 24 -17 41t-42 17zM1189 1057q-25 0 -42 -17t-17 -41q0 -25 17 -42t42 -17q24 0 41 17t17 42q0 24 -17 41t-41 17zM1733 1157q4 -15 4 -45 v-309q0 -47 -18 -88.5t-48.5 -72t-72 -48.5t-87.5 -18h-418q23 -28 56.5 -44.5t72.5 -16.5h478l137 -137v137h23q34 0 64.5 13t53 36t35.5 53t13 65v308q0 34 -13 64.5t-35.5 53.5t-53 36t-64.5 13h-127z" />
<glyph unicode="&#xf061;" horiz-adv-x="2016" d="M1512 987q1 -4 1.5 -7.5t0.5 -8.5v-460q0 -15 -4 -24l-332 243zM528 979l337 -253l-332 -244l-5 489v8zM1284 897v178h-529v-179l-184 136l449 336l442 -340zM819 1004h401v23h-401v-23zM819 938h401v23h-401v-23zM819 865h401v23h-401v-23zM1114 680l-69 -53l-24 -18 l-24 18l-67 50l-336 -247q5 -1 9 -1.5t8 -0.5h820q11 0 22 3z" />
<glyph unicode="&#xf062;" horiz-adv-x="1954" d="M1395 529q54 -21 84.5 -47.5t30.5 -55.5q0 -35 -42.5 -65t-116 -53t-172.5 -36t-211 -13q-113 0 -211.5 13t-172 36t-116 53t-42.5 65q0 29 30.5 55.5t84.5 47.5q-27 -20 -27 -38q0 -24 36 -44.5t97.5 -36t144 -24.5t176.5 -9t177 9t144.5 24.5t97 36t35.5 44.5 q0 18 -27 38zM702 1289q20 0 38 -7.5t31.5 -21t21.5 -31.5t8 -39q0 -20 -8 -38t-21.5 -31.5t-31.5 -21t-38 -7.5t-38 7.5t-31.5 21t-21.5 31.5t-8 38q0 21 8 39t21.5 31.5t31.5 21t38 7.5zM1233 1289q-42 0 -70.5 -28.5t-28.5 -70.5q0 -21 7.5 -38.5t21 -31t31.5 -21 t39 -7.5q42 0 70 28t28 70q0 21 -7.5 39t-21 31.5t-31 21t-38.5 7.5zM1135 462h70l28 182l27 -182h76v288q23 12 37 34t14 49v147q0 19 -7.5 36.5t-20 30t-30 20t-36.5 7.5h-115q-12 0 -22 -3q25 -34 25 -81v-161q0 -31 -12 -58.5t-34 -48.5v-260zM970 1325q22 0 41.5 -8.5 t34 -23t23 -34t8.5 -41.5t-8.5 -41.5t-23 -34t-34 -23t-41.5 -8.5t-41.5 8.5t-34 23t-23 34t-8.5 41.5t8.5 41.5t23 34t34 23t41.5 8.5zM1076 739q25 13 40 37t15 53v161q0 21 -8 39t-22 32t-32.5 22t-39.5 8h-125q-21 0 -39.5 -8t-32.5 -22t-22 -32t-8 -39v-161 q0 -29 15.5 -53t39.5 -37v-313h83l30 198l30 -198h76v313zM799 722q-21 21 -33 48.5t-12 58.5v161q0 23 6.5 43.5t17.5 37.5q-9 3 -21 3h-115q-20 0 -37 -7.5t-29.5 -20t-20 -30t-7.5 -36.5v-147q0 -27 14 -49t37 -34v-288h75l28 182l28 -182h69v260z" />
<glyph unicode="&#xf063;" horiz-adv-x="2834" d="M1034 1155q9 55 48 94q24 23 55.5 36.5t66.5 13.5q73 0 121 -50h1q23 -24 36.5 -55t13.5 -67q0 -54 -30 -97l-1 -25h167v-157h-169v-30q25 -56 25 -126q0 -67 -24.5 -125.5t-69.5 -103.5t-103.5 -70t-125.5 -25q-69 0 -126.5 25t-102.5 70t-70 103.5t-25 125.5 q0 69 25 126.5t70 102.5q14 14 29.5 26.5t34.5 23.5zM882 703q45 45 102 81.5t139 61.5q-40 6 -81 3t-75 -19t-57.5 -47t-27.5 -80zM1193 840q-29 29 -66 45.5t-82 16.5t-82 -16.5t-66 -45.5t-45.5 -66t-16.5 -82t16.5 -82t45.5 -66t66 -45t82 -16t82 16t66 45t45 66t16 82 t-16 82t-45 66zM1781 1155q-9 55 -48 94q-24 23 -55.5 36.5t-66.5 13.5t-66.5 -13.5t-54.5 -36.5h-1q-23 -23 -36.5 -54.5t-13.5 -67.5q0 -54 30 -97l1 -25h-42v-149h44v-38q-12 -29 -19 -60.5t-7 -65.5q0 -67 25 -125.5t70 -103.5t103.5 -70t125.5 -25q69 0 126.5 25 t102.5 70t70 103.5t25 125.5q0 69 -25 126.5t-70 102.5q-29 29 -65 50zM1606 703q4 49 27.5 80t57.5 47t75 19t81 -3q-82 -25 -139 -61.5t-102 -81.5zM1622 840q29 29 66 45.5t82 16.5t82 -16.5t66 -45.5t45.5 -66t16.5 -82t-16.5 -82t-45.5 -66t-66 -45t-82 -16t-82 16 t-66 45t-45 66t-16 82t16 82t45 66z" />
<glyph unicode="&#xf064;" horiz-adv-x="1977" d="M1443 409l-79 -15l-12 -76l-146 146l21 22l-315 309l-17 -89q-1 -1 -5 -1q-3 1 -4 4l-72 223q-2 1 1 4q2 2 4 2l219 -61q2 0 3 -1q0 -1 0.5 -1t0.5 -1q1 -3 -1 -5l-85 -30l315 -310l26 26zM823 958q-14 0 -23 -9q-12 -12 -10 -28v-2l1 -3l57 -174q-26 2 -49 13t-40 29 t-26.5 41.5t-9.5 50.5q0 28 10.5 52.5t29 43t43 29t52.5 10.5q46 0 81.5 -27.5t47.5 -69.5l-156 43h-3l-2 1h-1h-2zM858 619q82 0 147 47l100 -99q-51 -42 -113 -64.5t-134 -22.5q-82 0 -154 31t-125.5 85t-84.5 126t-31 154t31 154t84.5 125.5t125.5 84.5t154 31t154 -31 t126 -84.5t85 -125.5t31 -154q0 -64 -19 -121.5t-53 -105.5l-101 99q34 58 34 128q0 53 -20 100t-55 82t-82 55.5t-100 20.5t-100 -20.5t-82 -55.5t-55 -82t-20 -100t20 -100t55 -82t82 -55t100 -20z" />
<glyph unicode="&#xf065;" horiz-adv-x="2590" d="M1849 1245v-152l-545 -271l-546 271v152h1091zM1304 735l545 271v-570h-1091v570z" />
<glyph unicode="&#xf066;" horiz-adv-x="1701" d="M1226 432h-282v-26h282v26zM1226 586h-282v-26h282v26zM1328 432q11 0 18.5 -7.5t7.5 -18.5v-230q0 -11 -7.5 -18.5t-18.5 -7.5h-179v282h179zM1380 586q11 0 18 -7.5t7 -18.5v-77q0 -25 -25 -25h-231v128h231zM1047 458h-231q-11 0 -18.5 7t-7.5 18v77q0 11 7.5 18.5 t18.5 7.5h231v-128zM1047 150h-180q-11 0 -18 7.5t-7 18.5v230q0 11 7 18.5t18 7.5h180v-282zM959 611q-7 0 -23.5 5t-34.5 15.5t-33.5 25.5t-21.5 35.5t2.5 45.5t38.5 55q26 26 45.5 22.5t33.5 -20.5l32 -40q14 -18 33 -42t41 -50l-69 51l-26 18q-17 12 -29.5 9t-26.5 -20 q-11 -14 -4 -33q5 -15 26 -35t72 -42h-56zM1237 611q6 0 22.5 5t34.5 15.5t33.5 25.5t21 35.5t-2.5 45.5t-38 55q-25 25 -45 21.5t-33 -19.5l-32 -40l-75 -92q22 17 39.5 29.5t30.5 21.5l26 18q17 12 29.5 9t25.5 -20q9 -13 4 -33q-5 -15 -25.5 -35t-71.5 -42h56zM1149 663 q0 11 -7.5 18t-18.5 7h-51q-25 0 -25 -25v-26q0 -11 7 -18.5t18 -7.5h51q11 0 18.5 7.5t7.5 18.5v26zM451 857h331v-78h-331v78zM919 1061h194l-194 194v-194zM711 231q4 -19 9.5 -38.5t13.5 -39.5h-407v1224h580l328 -327v-167q-20 -1 -39.5 -2.5t-39.5 -5.5v108h-316v316 h-435v-1068h306zM637 592l-9 -78h-177v78h186zM451 1140h275v-79h-275v79z" />
<glyph unicode="&#xf067;" horiz-adv-x="1764" d="M1426 1212l-39 -87l-26 35l-297 -241l-35 -27l-112 120l-30 29l-328 -150l-31 97l357 160l28 9l22 -21l100 -109l267 216l-27 38l95 9l96 10zM277 188v-86h86h1215v86h-1215v1094h-86v-1094zM965 308q29 6 46 25t17 45t-15 43.5t-48 29.5q-24 9 -33.5 16.5t-9.5 16.5 q0 21 31 21q18 0 29.5 -4.5t19.5 -8.5h4q2 2 2 3l10 34q1 4 -2 6q-8 4 -20 7.5t-29 5.5v30q0 4 -5 4h-30q-5 0 -5 -4v-33q-28 -6 -44 -23.5t-16 -43.5q0 -30 21.5 -46.5t46.5 -24.5q38 -14 38 -33q0 -24 -36 -24q-19 0 -33 5t-22 10q-1 1 -4 1q-3 -2 -3 -3l-10 -36 q-1 -4 2 -5q23 -14 58 -16v-32q0 -5 5 -5h31q4 0 4 5v34zM941 612q26 1 41.5 5.5t24.5 9.5t13 8.5t6 2.5q37 -11 72 -34t62.5 -53.5t44 -68t16.5 -76.5q0 -47 -14 -77t-46 -48t-83.5 -25t-125.5 -7t-125.5 7t-83.5 24.5t-46 48t-14 77.5q0 36 14 71.5t37.5 65.5t55 53 t66.5 35q1 0 5.5 -3.5t14.5 -7t25.5 -6.5t39.5 -2zM859 664q-3 6 -9 19t-11.5 27.5t-10.5 26.5t-7 15q-8 13 -3 24.5t28 9.5q20 -2 35.5 1t20.5 20q3 12 11 19.5t17.5 8t19 -6.5t15.5 -25q3 -10 8.5 -11.5t11.5 0.5t11.5 5.5t8.5 4.5q15 6 23 4t10.5 -7.5t1 -13t-4.5 -13.5 q-2 -2 -6.5 -12t-9.5 -23.5t-8 -29t-1 -30.5q1 -8 -6.5 -14t-19 -10t-24 -6.5t-21.5 -2.5t-21.5 1t-24.5 3.5t-21.5 6.5t-12.5 9z" />
<glyph unicode="&#xf068;" horiz-adv-x="1991" d="M615 339v-62h-74h-47v62h121zM615 957v-35h-26v35h26zM615 878v-532h-26v532h26zM615 1104v-147h-26v-35h26v-44h-26v-532h26v-7h-121v-62h-9h-56h-52h-78v414h78v-29h52v308h112v134h74zM1466 1104v-134h112v-308h52v29h78v-414h-78h-52h-56h-56h-74v827h74zM1305 1253 h-147v-52h147v52zM1303 974h-140v-141h140v141zM1303 797h-140v-141h140v141zM1301 1008v140h-141v-140h141zM1303 615h-140v-141h140v141zM1132 1253h-147v-52h147v52zM1130 974h-141v-141h141v141zM1130 797h-141v-141h141v141zM1128 1008v140h-141v-140h141zM1130 615 h-141v-141h141v141zM1297 1303h56v-1026h-56v82h-295v-82h-64v1026h43v35h316v-35zM815 339h159v-62h-480v62h162v7h159v-7zM623 446h87v87h-87v-87zM623 681v-87h87v87h-87zM624 830v-86h86v86h-86zM759 533v-87h86v87h-86zM759 681v-87h86v87h-86zM759 830v-86h87v86h-87z M815 400h-159v-54h-67v532h260v44h-260v35h290v-611h-64v54z" />
<glyph unicode="&#xf069;" horiz-adv-x="2082" d="M1451 577l83 -242q38 8 75 16.5t75 17.5q-8 63 -16.5 126.5t-17.5 127.5zM1710 257l-26 -101l-44 -9l-67 77l-1 95l92 22zM1226 981h-345v42h345v-42zM1226 820h-345v42h345v-42zM1226 664h-574v42h574v-42zM672 1085l12 -125l-136 5zM522 368v543l191 -7l31 -1l-3 31 l-15 171h518q-4 27 -6.5 54.5t-5.5 55.5h-561h-22l-16 -15l-205 -198l-17 -16v-23v-650v-55h56h999l-35 110h-909zM652 490h574v42h-574v-42zM1469 1332q69 -154 114.5 -316.5t65.5 -347.5q-55 -12 -109 -24.5t-111 -25.5q-51 156 -82.5 321.5t-45.5 353.5q32 37 73 49 t95 -10z" />
<glyph unicode="&#xf070;" horiz-adv-x="1764" d="M694 257h108v460h-108v-460zM484 257h108v290h-108v-290zM1481 678l-183 45l55 41q-34 34 -81.5 38.5t-87.5 -25.5q-12 -8 -28 -29l-23 15q16 49 61 83q28 21 60 29.5t64 5t61.5 -18t52.5 -39.5l46 35zM982 598q-9 -33 -5.5 -66t17.5 -61.5t38.5 -51t57.5 -34.5 q54 -20 103 -7v28q-19 0 -39 8q-48 17 -69.5 59t-10.5 90l64 -24l-60 178l-150 -99zM1385 324q33 6 61 23.5t47.5 43.5t29 57.5t6.5 66.5q-2 27 -12.5 51t-26.5 44l-25 -12q4 -8 6.5 -18t3.5 -21q2 -24 -4.5 -46.5t-20 -40.5t-33 -31t-42.5 -18l-6 68l-134 -132l155 -92z M1376 1230l-40 -88l-25 35l-297 -241l-35 -27l-112 121l-30 28l-328 -150l-31 98l356 159l29 9l22 -21l100 -109l266 217l-27 37l96 10l95 9zM227 205v-86h85h1215v86h-1215v1095h-85v-1095z" />
<glyph unicode="&#xf071;" horiz-adv-x="1861" d="M1165 1231v22q0 30 -5 47q-5 11 -20 11q-11 0 -18 -10q-6 -9 -6 -28q0 -32 12 -44q7 -6 25 -19t47 -30q26 -16 43 -27.5t27 -19.5q18 -16 31 -46q6 -15 9.5 -33.5t3.5 -41.5q0 -70 -35 -111q-15 -18 -36 -30q-54 11 -113.5 20.5t-120.5 14.5q-28 37 -28 112v26h134v-33 q0 -58 4 -66q3 -13 20 -13q12 0 20 9q6 9 6 27q0 44 -6 64t-43 42q-31 19 -51.5 33t-31.5 23q-22 19 -38 51t-16 74q0 60 34 93q34 34 102 42v43h61v-43q62 -7 93 -41q30 -33 30 -93v-10t-1 -15h-133zM267 610l256 -501l219 112l-44 86l56 88q66 -2 120.5 -5.5t102.5 -5.5 t92.5 -1.5t91.5 6.5q15 4 50 25.5t78 52.5t89 67t84 69t62.5 58.5t24.5 35.5q-1 6 -3 12t-4 11q-5 10 -14.5 21t-26.5 20q-8 -1 -34.5 -18t-65.5 -39.5t-87.5 -46t-99.5 -38.5q-47 -14 -91.5 -14t-80 13t-58.5 36.5t-28 56.5q-1 3 13.5 5t38 4t54 2.5t62 1.5t60 1h49.5 q14 2 24.5 16.5t14.5 32t0 32.5t-19 18q-51 10 -108 20t-115 15.5t-115 4.5t-109 -14t-96 -40t-77 -73q-32 -26 -62 -46t-53 -33l-32 64z" />
<glyph unicode="&#xf072;" horiz-adv-x="2200" d="M1685 1286v-278h-58v142l-419 -420l-333 333l-272 -271l-81 81l353 352l333 -333l336 337h-104v57h245zM1591 936h49v-665h-176v652l127 127v-114zM1193 641l147 148v-518h-176v399zM874 960l175 -175v-514h-176v688zM616 703l135 134v-566h-176v473z" />
<glyph unicode="&#xf073;" horiz-adv-x="2505" d="M964 843q-16 -18 -28 -36t-22 -36l-97 97q11 19 24.5 36t27.5 34zM1251 557l134 -134h-122l-135 134h123zM553 1254l148 -147l168 -169q-14 -17 -27.5 -34t-24.5 -36l-178 178v-719h719l-95 96h122l34 -35l148 -147h-209h-719h-86v86v719v208zM1251 557h-123l-214 214 q10 18 22 36t28 36zM1299 1131q118 0 223 -45t183 -123t123.5 -182.5t45.5 -223.5v-134h-134h-881h-134v134q0 119 45 223.5t123 182.5t182.5 123t223.5 45zM1299 997q-91 0 -171 -34.5t-140 -94.5t-94.5 -140t-34.5 -171h881q0 91 -34.5 171t-94.5 140t-140.5 94.5 t-171.5 34.5z" />
<glyph unicode="&#xf074;" horiz-adv-x="2015" d="M1289 1348h-165v-231h-454v231h-202v-231h821v231zM1124 1348h-454v-231h454v231zM468 1117v231h335v-231h-335zM745 987h-277v-230h277v230zM1418 987h-139v-230h139v230zM1279 757h-534v-1h534v1zM1279 987h-534v-230h534v230zM468 756v231h459v-231h-459zM726 607 h-258v-230h258v230zM1188 607h-129v-230h129v230zM1059 377h-333h333zM1059 607h-333v-230h333v230zM468 377v230h427v-230h-427zM1699 185h-1283v1224h64v-1160h1219v-64z" />
<glyph unicode="&#xf075;" horiz-adv-x="1909" d="M744 773q-26 -15 -41.5 -43.5t-15.5 -68.5q0 -39 15 -67t42 -43v222zM782 908v-88q6 1 12.5 1.5t12.5 0.5q29 0 47.5 -4.5t26.5 -8.5l-10 -33q-11 5 -27 9t-35 4q-8 0 -14 -0.5t-13 -1.5v-249q6 -1 12 -1.5t12 -0.5q41 0 66 13l8 -32q-11 -6 -32 -10.5t-50 -4.5 q-4 0 -7.5 0.5t-8.5 0.5v-87h-38v94q-45 14 -72 51.5t-27 97.5q0 57 26.5 96t72.5 56v97h38zM1106 405q36 48 57 105h315v-105h-372zM1189 654h289v-104h-302q6 24 9.5 49.5t3.5 51.5v3zM1092 654q0 64 -24.5 120.5t-66.5 98.5t-98.5 66.5t-120.5 24.5t-120.5 -24.5 t-99 -66.5t-67 -98.5t-24.5 -120.5t24.5 -120.5t67 -98.5t99 -66.5t120.5 -24.5t120.5 24.5t98.5 66.5t66.5 98.5t24.5 120.5zM900 1077h578v-105h-444q11 -9 22 -19t21 -21h401v-104h-329q5 -10 8.5 -19.5t7.5 -20.5h313v-104h-291q-1 13 0 1.5t1 -31.5q0 -84 -32 -158 t-87 -129.5t-129 -87.5t-158 -32t-158.5 32t-129.5 87.5t-87 129.5t-32 158t32 158.5t87 129.5t129.5 87t158.5 32q31 0 60 -5t58 -13v34zM1421 1114h-579v104h579v-104zM1478 1359v-105h-578v105h578z" />
<glyph unicode="&#xf076;" horiz-adv-x="3041" d="M1282 936l-3 -80l630 1v77zM1285 993l627 -2v77l-627 2v-77zM1287 1115l628 -2v77l-627 2zM2157 1077q-30 -18 -39 -50.5t9 -63.5q18 -30 51.5 -38.5t63.5 9.5q15 9 24.5 22t13.5 28.5t2 32t-11 31.5q0 2 -2 2q-11 21 -27 27q-19 11 -42 11.5t-43 -11.5zM1168 740l2 544 l857 -2q57 -20 99.5 -41.5t74 -44t53 -45t35.5 -43.5q33 -48 37 -97q-4 -47 -38 -97q-14 -21 -36 -43.5t-53.5 -45t-74.5 -45t-98 -42.5zM842 425v487h133v-61h-52v-364h732v59h82v-121h-895zM1897 566h-895v486h134v-61h-53v-364h733v59h81v-120z" />
<glyph unicode="&#xf077;" horiz-adv-x="2332" d="M1354 581l24 -88l56 289l46 -276l51 98l38 -76h168v19h-155l-51 101l-41 -79l-55 328l-61 -316l-22 80l-36 -149l-43 143l-42 -98h-135v-18h149l25 57l48 -161zM1637 328q60 48 94 117.5t34 150.5q0 75 -30 140t-81 113q-23 21 -49.5 38t-55.5 29q-30 12 -62 18.5 t-66 6.5q-71 0 -134 -27t-110 -74t-74 -110t-27 -134q0 -60 19 -113t54 -98q54 -69 134 -104q67 -29 138 -29q38 0 73 8t67 22q24 3 43.5 15t32.5 31zM1016 462q-8 17 -12 29.5t-6 26t-2.5 31.5t-0.5 47q0 88 33.5 165.5t91.5 135.5t135.5 91.5t165.5 33.5q33 0 57.5 -2.5 t55.5 -12.5v94h-901v-638zM689 1233q-16 0 -26.5 -11t-10.5 -26q0 -16 10.5 -27t26.5 -11t27 11t11 27q0 15 -11 26t-27 11zM802 1233q-16 0 -27 -11t-11 -26q0 -16 11 -27t27 -11t26.5 11t10.5 27q0 15 -10.5 26t-26.5 11zM917 1233q-16 0 -27 -11t-11 -26q0 -16 11 -27 t27 -11t26.5 11t10.5 27q0 15 -10.5 26t-26.5 11zM1608 977q46 -18 89 -58.5t76 -93.5t53 -113t20 -116q0 -88 -33.5 -165.5t-91.5 -135t-135 -91t-165 -33.5q-41 0 -98.5 15t-113.5 42.5t-101.5 68t-62.5 91.5h-412q-32 0 -53.5 22t-21.5 53v752q0 31 21.5 53t53.5 22h901 q32 0 53.5 -22t21.5 -53zM1637 328q-13 -19 -32.5 -31t-43.5 -15q20 9 39.5 20.5t36.5 25.5zM1421 1022q-88 0 -165.5 -33.5t-135.5 -91.5t-91.5 -135.5t-33.5 -165.5zM633 463v638h901zM917 1158q-16 0 -27 11t-11 27q0 15 11 26t27 11t26.5 -11t10.5 -26q0 -16 -10.5 -27 t-26.5 -11zM802 1158q-16 0 -27 11t-11 27q0 15 11 26t27 11t26.5 -11t10.5 -26q0 -16 -10.5 -27t-26.5 -11zM689 1158q-16 0 -26.5 11t-10.5 27q0 15 10.5 26t26.5 11t27 -11t11 -26q0 -16 -11 -27t-27 -11z" />
<glyph unicode="&#xf078;" horiz-adv-x="2109" d="M1723 598l-10 6q-8 4 -23 9.5t-44 16.5l-14 33q12 28 18 43t9 23q3 9 3 11l-44 42q-2 0 -11 -3q-7 -2 -23 -9t-42 -18l-35 13q-11 28 -17 43.5t-11 22.5l-6 9h-61l-6 -9q-5 -7 -10.5 -22.5t-15.5 -43.5l-34 -14l-68 27q-9 3 -11 3l-43 -43q-2 -2 3 -11q2 -8 8.5 -22.5 t20.5 -41.5l-15 -33q-29 -11 -44.5 -17.5t-22.5 -10.5q-9 -5 -9 -6v-60l10 -5q8 -3 23 -9.5t44 -16.5l14 -34q-13 -28 -19 -43t-8 -23l-3 -10l43 -43q2 -2 11 3q8 2 23 8.5t43 19.5l34 -14q11 -29 17 -44t11 -22l6 -9h62l5 9q3 7 9.5 22t17.5 44l34 14q28 -12 43.5 -18.5 t23.5 -8.5q10 -3 11 -2l43 42q0 2 -3 11q-3 8 -9 22.5t-19 42.5l14 33q29 11 44 17.5t23 10.5l10 6v59zM1444 655q18 0 34.5 -7t28.5 -19t19 -28t7 -34q0 -36 -26 -61.5t-63 -25.5q-18 0 -34.5 7t-29 18.5t-19.5 27.5t-7 34t7 34t19.5 28t29 19t34.5 7zM1017 985l457 177 l-457 178v-355zM993 1330l-422 -170l422 -171v341zM1575 1161l-565 -218l-536 218l543 218zM476 478l8 -3l463 203v185l-471 189v-574zM947 651l-431 -189l431 -174v363zM439 1106l544 -219v-653l-544 219v653zM1227 346l31 -27l-211 -85v653l543 219v-285q-9 5 -18 9l-18 8 v214l-471 -189v-186l72 -29l-6 -24l-66 26v-362z" />
<glyph unicode="&#xf079;" horiz-adv-x="2109" d="M1553 572h-103v102h-90v-102h-104v-90h104v-105h90v105h103v90zM1404 784q54 0 101 -20.5t82 -55.5t55.5 -82t20.5 -100q0 -54 -20.5 -101t-55.5 -82t-82 -55t-101 -20q-53 0 -100 20t-82 55t-55.5 82t-20.5 101q0 53 20.5 100t55.5 82t82 55.5t100 20.5zM969 967 l467 181l-467 183v-364zM944 1321l-432 -174l432 -175v349zM1539 1148l-578 -224l-549 223l556 224zM415 449l8 -4l473 209v188l-481 194v-587zM896 626l-440 -194l440 -177v371zM378 1091l555 -224v-667l-555 223v668zM1183 314q18 -18 31 -27l-215 -87v667l555 224v-291 q-9 5 -18 9t-19 8v219l-481 -194v-190l73 -30l-6 -24l-67 27v-370z" />
<glyph unicode="&#xf080;" horiz-adv-x="1209" d="M638 705q61 17 111 58l-45 54q-19 -16 -40 -27.5t-44 -17.5zM561 782q42 0 79 16t64.5 43.5t43.5 65t16 79.5t-16 79t-43.5 65t-64.5 44t-79 16t-79.5 -16t-65 -44t-43.5 -65t-16 -79t16 -79.5t43.5 -65t65 -43.5t79.5 -16zM524 767q-48 8 -88 35l-37 -53l42 -29 q32 -16 72 -22zM399 748l-3 -3q1 0 1 -1zM370 872q-26 42 -30 91l-70 -8q8 -65 40 -119zM349 1187q-43 -45 -65 -107l66 -22q17 48 50 81zM561 1278q-52 0 -107 -20l25 -65q39 15 82 15h13l4 69q-5 1 -9 1h-8zM665 1182q43 -22 73 -63l56 42q-39 51 -96 82zM852 986 q0 16 -1.5 24t-4.5 23l-68 -14q2 -12 3.5 -16.5t1.5 -16.5q0 -50 -21 -93l63 -30q27 58 27 123zM978 254l-144 6l-79 -122l-175 337l-96 -324l-100 104l-141 -33l147 498q-66 43 -106.5 113t-40.5 155q0 66 25 124t68.5 101t101 68t123.5 25t124 -25t101 -68t68 -101 t25 -124q0 -85 -39 -154.5t-105 -111.5zM561 1152q34 0 64 -13t52 -35.5t35 -52t13 -63.5t-13 -64t-35 -52t-52 -35t-64 -13t-63.5 13t-52 35t-35.5 52t-13 64t13 63.5t35.5 52t52 35.5t63.5 13z" />
<glyph unicode="&#xf081;" horiz-adv-x="2021" d="M1020 1355q83 0 159.5 -21.5t143 -60.5t121.5 -94t94 -121.5t60.5 -143.5t21.5 -160t-21.5 -159.5t-60.5 -143.5t-93.5 -121.5t-121.5 -93.5t-143.5 -60.5t-159.5 -21.5q-177 0 -323 94q-52 34 -96.5 76t-79.5 95l102 69q56 -83 140 -137q58 -37 123 -55.5t134 -18.5 q99 0 186 37.5t152 102.5t102.5 151.5t37.5 185.5t-37.5 186t-102.5 152t-152 102.5t-186 37.5q-95 0 -178.5 -34.5t-147.5 -94t-103.5 -140t-46.5 -173.5h58l-122 -212l-122 212h63q7 118 56.5 221t130.5 179.5t186.5 120.5t225.5 44zM964 1088q14 0 23.5 -9.5t9.5 -22.5 v-285q9 -6 17 -17h310q14 0 23 -9t9 -23t-9 -23t-23 -9h-310q-8 -12 -21 -19.5t-29 -7.5q-24 0 -41.5 17.5t-17.5 41.5q0 16 7.5 28.5t19.5 20.5v285q0 13 9 22.5t23 9.5z" />
<glyph unicode="&#xf082;" d="M1136 807l-385 334q-20 8 -30.5 1t-15.5 -18q-6 -14 -6 -32v-131h-308q-22 0 -37 -15t-15 -36v-206q0 -21 15 -36t37 -15h308v-128q0 -18 6 -31q5 -11 15.5 -18.5t30.5 -2.5zM1367 1475q31 0 59.5 -12t49.5 -33t33.5 -49t12.5 -60v-1028q0 -32 -12.5 -60t-33.5 -49 t-49.5 -33t-59.5 -12h-719q-32 0 -60 12t-49 33t-33 49t-12 60v257h102v-257q0 -21 15 -36t37 -15h719q22 0 37 15t15 36v1028q0 22 -15 37t-37 15h-719q-22 0 -37 -15t-15 -37v-257h-102v257q0 32 12 60t33 49t49 33t60 12h719z" />
<glyph unicode="&#xf083;" d="M1524 781l-398 346q-20 8 -30.5 0t-15.5 -19q-7 -15 -7 -33v-134h-319q-23 0 -38 -15.5t-15 -37.5v-213q0 -22 15 -37.5t38 -15.5h319v-133q0 -10 2 -17.5t5 -14.5q5 -11 15.5 -19t30.5 -2zM1444 526v-276q0 -33 -12.5 -62t-34 -50.5t-50.5 -34t-62 -12.5h-744 q-33 0 -62 12.5t-50.5 34t-34 50.5t-12.5 62v1063q0 33 12.5 62t34 50.5t50.5 34t62 12.5h744q33 0 62 -12.5t50.5 -34t34 -50.5t12.5 -62v-276l-106 92v184q0 22 -15.5 37.5t-37.5 15.5h-744q-22 0 -37.5 -15.5t-15.5 -37.5v-1063q0 -22 15.5 -37.5t37.5 -15.5h744 q22 0 37.5 15.5t15.5 37.5v184z" />
<glyph unicode="&#xf084;" d="M687 248l-310 133v488h44q58 8 107 -4.5t84 -31.5q20 -11 39 -24t36 -29q47 -3 69.5 -23.5t37 -47.5t28 -54.5t42.5 -44.5q17 -10 30 -11t23 2t18.5 7t17.5 4q27 0 56.5 -5t58 -18.5t54.5 -37.5t46.5 -62t33.5 -92.5t16 -128.5l-265 113zM1529 1400v-1019l-266 -133 l-310 133l-266 -133l-310 133v1019l310 -133l114 58q-32 -58 -38 -119l-36 -18q-20 -9 -40 -9t-35 7l-187 80v-827l219 -93l229 114q19 10 40 10q14 0 35 -8l272 -116l181 90v821l-120 -60q-3 44 -20 89zM1042 1089q19 0 36 7.5t29.5 20t20 29.5t7.5 36t-7.5 36.5t-20 30 t-29.5 20t-36 7.5q-20 0 -37 -7.5t-29.5 -20t-20 -30t-7.5 -36.5t7.5 -36t20 -29.5t29.5 -20t37 -7.5zM1042 1396q43 0 82 -17t68 -46t46 -68t17 -83q0 -27 -14 -62.5t-34.5 -76.5t-44.5 -85.5t-44.5 -89.5t-34.5 -89t-14 -83h-55q0 40 -14 83.5t-34.5 87.5t-44.5 88 t-44.5 85t-34.5 77t-14 65q0 44 17 83t46 68t68 46t83 17zM1529 1400h-1152h1152z" />
<glyph unicode="&#xf085;" horiz-adv-x="1873" d="M892 1092q52 0 98.5 -20t81 -54.5t54.5 -81t20 -98.5q0 -53 -20 -99t-54.5 -80.5t-81 -54.5t-98.5 -20q-53 0 -99 20t-80.5 54.5t-54.5 80.5t-20 99q0 52 20 98.5t54.5 81t80.5 54.5t99 20zM892 1008q-35 0 -65.5 -13.5t-53.5 -36.5t-36.5 -54t-13.5 -66t13.5 -65.5 t36.5 -53.5t53.5 -36.5t65.5 -13.5t66 13.5t54 36.5t36.5 53.5t13.5 65.5t-13.5 66t-36.5 54t-54 36.5t-66 13.5zM1553 849q21 -31 14 -67.5t-38 -57.5t-67.5 -14t-57.5 38q-43 64 -99.5 114.5t-122.5 85.5t-139.5 53.5t-150.5 18.5t-150 -18.5t-139 -53.5t-123 -85.5 t-100 -114.5q-28 -40 -74 -40q-28 0 -50 16q-31 21 -38 57.5t14 67.5q55 82 128 147.5t158 110.5t180 69t194 24q100 0 194.5 -24t179.5 -69t158 -110.5t129 -147.5zM437 941q0 -94 36 -177t97.5 -144.5t144.5 -97.5t177 -36t177.5 36t145 97.5t97.5 144.5t36 177h67 q0 -108 -41 -203t-112 -166t-166.5 -112t-203.5 -41t-203 41t-166 112t-112 166t-41 203h67z" />
<glyph unicode="&#xf086;" d="M881 566l-267 267h139l267 -267h-139zM753 833l267 267h-139l-267 -267h139zM659 833l48 73h567v-146h-567zM959 323q105 0 198 40t162.5 109.5t109.5 162.5t40 198t-40 198t-109.5 162.5t-162.5 109.5t-198 40t-198 -40t-162 -109.5t-109 -162.5t-40 -198t40 -198 t109 -162.5t162 -109.5t198 -40zM959 1430q124 0 232.5 -47t189.5 -128t128 -189.5t47 -232.5t-47 -232.5t-128 -189.5t-189.5 -128t-232.5 -47q-123 0 -232 47t-190 128t-128 189.5t-47 232.5t47 232.5t128 189.5t190 128t232 47z" />
<glyph unicode="&#xf087;" d="M1037 564l266 267h-138l-267 -267h139zM1165 831l-267 266h139l266 -266h-138zM1259 831l-48 72h-568v-145h568zM958 321q105 0 198 40t162.5 109.5t109.5 162.5t40 198t-40 198t-109.5 162t-162.5 109t-198 40t-198 -40t-162 -109t-109 -162t-40 -198t40 -198 t109 -162.5t162 -109.5t198 -40zM958 1427q124 0 232.5 -47t189.5 -128t128 -189.5t47 -231.5q0 -124 -47 -232.5t-128 -189.5t-189.5 -128t-232.5 -47q-123 0 -231.5 47t-189.5 128t-128 189.5t-47 232.5q0 123 47 231.5t128 189.5t189.5 128t231.5 47z" />
<glyph unicode="&#xf088;" horiz-adv-x="2197" d="M748 910h412v-106h-412v106zM748 1151h706v-117h-706v117zM1526 1316q27 0 51.5 -10.5t42.5 -28.5t28.5 -42t10.5 -52v-442q0 -27 -10.5 -51t-28.5 -42t-42.5 -28.5t-51.5 -10.5h-486l-89 -221l-88 221h-132q-28 0 -52 10.5t-42 28.5t-28.5 42t-10.5 51v442q0 28 10.5 52 t28.5 42t42 28.5t52 10.5h795z" />
<glyph unicode="&#xf089;" horiz-adv-x="1742" d="M889 264q-98 0 -184.5 37.5t-151 102t-101.5 150.5t-37 184t37 184.5t101.5 151t151 102t184.5 37.5q26 0 53 -3v77q0 7 4 13.5t11 8.5q15 6 26 -5l168 -169q8 -7 8 -17t-8 -17l-168 -169q-11 -11 -26 -5q-15 4 -15 22v85q-14 2 -26.5 3.5t-26.5 1.5q-62 0 -117 -23.5 t-96 -64.5t-64.5 -96t-23.5 -117t23.5 -116.5t64.5 -95.5t96 -64.5t117 -23.5t117 23.5t96 64.5t64.5 95.5t23.5 116.5q0 11 7 18t17 7h125q25 0 25 -25q0 -98 -37.5 -184t-102 -150.5t-151 -102t-184.5 -37.5z" />
<glyph unicode="&#xf090;" horiz-adv-x="1902" d="M1062 1011h-205v263h205v-263zM1208 663v59h-526v-59h526zM1208 498v59h-526v-59h526zM1449 1111v-768q0 -12 -8.5 -20.5t-20.5 -8.5h-931q-12 0 -20.5 8.5t-8.5 20.5v941q0 12 8.5 20.5t20.5 8.5h122v-357h536v357h100zM1298 850h-687v-468h687v468z" />
<glyph unicode="&#xf091;" d="M947 364q84 0 157 32t127 86.5t85.5 128t31.5 156.5t-32 156t-86.5 127.5t-128 86t-156.5 31.5t-156 -32t-127.5 -86.5t-86 -128t-31.5 -156.5t32 -156t86.5 -127.5t128 -86t156.5 -31.5zM1562 733l-146 -1q-6 -87 -42 -163.5t-94 -135t-134.5 -94.5t-163.5 -42v-146 l-69 -1l-1 146q-87 6 -163.5 42t-135 94t-94.5 134.5t-42 163.5h-146v70h146q6 87 42 163.5t94 134.5t134.5 94.5t163.5 43.5l-1 146h70v-146q87 -6 163.5 -42t134.5 -94t94.5 -134.5t43.5 -163.5h146v-69zM946 1010q51 0 95.5 -19t77.5 -52t52.5 -77.5t19.5 -94.5 q0 -51 -19 -95.5t-52 -77.5t-77.5 -52.5t-95.5 -19.5t-95.5 19t-77.5 52t-52.5 77.5t-19.5 95.5t19 95.5t52 77.5t77.5 52t95.5 19z" />
<glyph unicode="&#xf092;" d="M953 417q81 0 151.5 30.5t123.5 83.5t83.5 124t30.5 152t-30.5 151.5t-83.5 123.5t-124 83.5t-152 30.5t-152 -30.5t-123.5 -83.5t-83 -124t-30.5 -152t30.5 -151.5t83.5 -123.5t124 -83.5t152 -30.5zM1549 774h-141q-6 -84 -41 -158.5t-91 -131.5t-130.5 -92t-158.5 -41 v-141h-67v141q-84 6 -158.5 41t-131.5 91t-92 130.5t-41 158.5h-141v67h141q6 84 41 158.5t91 131t130.5 92t158.5 41.5v141h67v-141q84 -6 158.5 -41t131 -91t92 -130.5t41.5 -158.5h141v-67zM1002 806l140 -141l-49 -49l-4 4l-137 137l-140 -141l-49 49l4 4l136 137 l-140 141l49 50l4 -4l136 -137l141 141l49 -50l-4 -4z" />
<glyph unicode="&#xf093;" horiz-adv-x="1193" d="M596 1379q41 0 77 -10.5t63 -28t42.5 -41.5t15.5 -51v-532q0 -27 -15.5 -50.5t-42.5 -41.5t-63 -28t-77 -10t-77 10t-63 28t-42.5 41.5t-15.5 50.5v532q0 27 15.5 51t42.5 41.5t63 28t77 10.5zM961 858q5 -5 8 -10.5t5 -10.5q2 -8 2 -11t-2 -11q-2 -5 -5 -9.5t-8 -7.5 h-35v-66q0 -100 -56.5 -167.5t-174.5 -98.5v-64q-14 -7 -40 -10l-26 -3v-67q127 -5 195.5 -23t68.5 -42v-25q0 -14 -23.5 -26t-63.5 -21t-94.5 -14t-115.5 -5q-62 0 -116 5t-94 14t-63.5 21t-23.5 26v25q0 24 68.5 42t195.5 23v67l-26 3l-22 4t-18 6v64q-118 29 -174.5 96 t-56.5 170v66h-33q-7 6 -9 17q-1 2 -1 10q0 9 1 11q1 10 9 22l81 -1v-125q0 -59 22 -102t60.5 -72t89.5 -43t109 -14t109 14t89.5 43t60.5 72t22 102v125z" />
<glyph unicode="&#xf094;" horiz-adv-x="2194" d="M975 631q45 45 45 110t-45 110q-46 46 -111 46q-64 0 -110 -46t-46 -110t46 -110t110 -46q65 0 111 46zM1488 429q0 32 -23 55t-55 23q-31 0 -54 -23q-24 -23 -24 -55t23 -55t55 -23t55 23t23 55zM1488 1053q0 32 -23 55t-55 23q-31 0 -54 -23q-24 -23 -24 -55t23 -55 t55 -23t55 23t23 55zM1254 684q0 -6 -4 -11.5t-10 -6.5l-94 -15q-3 -11 -8 -22t-12 -24q11 -15 24.5 -32.5t30.5 -37.5q5 -7 5 -13t-5 -11q-8 -10 -20.5 -24t-29.5 -31q-36 -36 -48 -36q-6 0 -13 4l-70 55q-22 -12 -47 -19q-3 -33 -6 -56.5t-8 -37.5q-3 -15 -18 -15h-113 q-7 0 -12 4.5t-7 10.5l-14 94q-21 6 -45 18l-72 -54q-4 -4 -12 -4q-5 0 -13 5q-88 81 -88 97q0 8 4 12t10 12l15 20l29 37q-13 25 -21 50l-93 15q-6 1 -10.5 6t-4.5 12v112q0 6 4.5 12t9.5 7l95 14q3 11 8 22.5t11 24.5q-11 14 -24 31.5t-30 38.5q-5 5 -5 12t5 12 q7 9 19 22.5t31 31.5q38 36 48 36q8 0 12 -4l71 -55l46 20q4 33 7 56t7 37q4 15 19 15h113q7 0 12 -4.5t6 -10.5l14 -93q24 -8 46 -19l72 54q4 4 12 4q5 0 13 -5q88 -82 88 -97q0 -7 -5 -12l-25 -33l-28 -36q17 -32 21 -50l93 -14q14 -2 14 -18v-113zM1644 386q0 -9 -90 -18 q-7 -16 -19 -32q31 -66 31 -84q0 -2 -2 -4q-74 -44 -76 -44q-4 0 -28 29q-11 14 -19 24.5t-12 16.5q-13 -2 -18.5 -2t-18.5 2q-4 -6 -12 -16l-20 -25q-24 -29 -28 -29l-19 11q-10 5 -24 13.5t-32 19.5q-3 1 -3 4q0 12 32 84q-12 16 -19 32q-91 9 -91 18v86q0 10 91 19 q5 8 9.5 16t9.5 15q-32 72 -32 84q0 2 3 5q2 0 6.5 3.5t14.5 8.5l36 21l18 9q4 0 28 -28l20 -25t12 -16q13 2 18.5 2t18.5 -2q30 44 56 68l3 1q2 0 76 -42q2 -2 2 -5q0 -18 -31 -84q5 -7 9.5 -15t9.5 -16q90 -9 90 -19v-86zM1644 1010q0 -9 -90 -18q-7 -16 -19 -32 q31 -66 31 -84q0 -2 -2 -4q-74 -44 -76 -44q-4 0 -28 29q-11 14 -19 24.5t-12 16.5q-13 -2 -18.5 -2t-18.5 2q-4 -6 -12 -16l-20 -25q-24 -29 -28 -29l-19 11q-10 5 -24 13.5t-32 19.5q-3 1 -3 4q0 12 32 84q-12 16 -19 32q-91 9 -91 18v86q0 10 91 19q5 8 9.5 16t9.5 15 q-32 72 -32 84q0 2 3 5q2 0 6.5 3.5t14.5 8.5l36 21l18 9q4 0 28 -28l20 -25t12 -16q13 2 18.5 2t18.5 -2q30 44 56 68l3 1q2 0 76 -42q2 -2 2 -5q0 -18 -31 -84q5 -7 9.5 -15t9.5 -16q90 -9 90 -19v-86z" />
<glyph unicode="&#xf095;" horiz-adv-x="2048" d="M1225 935q-113 0 -212 -34q-49 -17 -92 -38.5t-81 -50.5t-77.5 -65t-79.5 -81q-13 -13 -13 -30q0 -18 13 -30.5t30 -12.5q15 0 30 12q9 8 21 20l28 28l45 44q45 45 89.5 72.5t89.5 44.5q45 18 97 26.5t112 8.5q18 0 30.5 12.5t12.5 30.5q0 17 -12.5 30t-30.5 13z M1610 1024q0 -67 -13 -129q-30 -150 -123 -255.5t-239 -178.5q-144 -72 -293 -72q-101 0 -190 31q-10 3 -59 28t-64 25q-11 0 -27 -22q-8 -11 -15 -22.5t-15 -23.5q-8 -13 -16 -24.5t-19 -22.5q-21 -21 -40 -21q-21 0 -34 7q-14 8 -20.5 16t-17.5 28q-5 8 -8 13t-3 16 q0 23 21 49q11 13 21.5 24t23.5 20t23.5 18t21.5 19q21 18 21 32q0 2 -9 26q-5 13 -7.5 20t-3.5 9q-6 34 -6 70q0 78 28.5 146.5t79.5 122.5q102 107 250 157q19 6 43 10t54 7q60 4 120 6q43 1 88.5 3t87 7.5t75 16.5t53.5 31l19 19l12 12t8 7q11 10 30 19t42 8 q26 -1 47 -30.5t32 -74.5t16 -83t5 -64z" />
<glyph unicode="&#xf096;" d="M1402 819l-120 -24l-21 8l-45 41l-100 -4l76 57h36l25 -38l4 1l4 3l5 9l-2 13l-26 19l-3 13l2 -3l10 3h1l64 -67l2 2l-1 24l8 -10l83 -23zM1478 654l4 2q9 35 14.5 71t4.5 74q0 51 -11 103l-3 6l1 4q-13 60 -38 113t-60 101l-4 -2l-20 21l7 2q-13 16 -27 30t-29 28l-17 1 l-31 -13l-80 -110l4 -14l38 -29v-15l-107 -79l1 -10l8 -14l3 -13l-46 -18l-3 -24l3 -29l-70 -139l-3 -61l52 -31h87l39 -11l75 -250q76 55 130.5 131.5t80.5 170.5zM957 1078l155 135l37 98q-48 18 -99 28t-105 9q-8 0 -14.5 -0.5t-13.5 -0.5l-8 -4l-14 -21l-3 -14l6 -11 l39 -5l12 -77l-20 -47l-5 -34l13 -36zM727 1128l-5 7l-5 1l-19 -23l4 -4h23l7 4zM953 514l-27 21l-79 23l-47 61l-57 22l-134 4l-40 69l-11 1l-34 -16l-12 13l-2 19l4 15l21 29l25 14l62 -12l10 -26l19 -5v40l52 76l115 64l-17 2l-30 23l76 21l3 -7l-1 -6l-5 -6l-8 -6l6 -8 l18 -1l15 6l-49 120l-7 -1l-61 29l-13 -13l-36 -91l-17 16l-40 18l-25 29l29 44l90 69l13 38l42 -26l6 -15l-43 -35l43 -27l9 5l5 -1l18 29l-4 5l25 28l-19 33l-50 43l26 5l-1 6l-15 4l-41 -24l13 22l-28 -9l-5 -68l-22 -16l-16 15l41 77l-3 3l-4 2h-4l-5 -2l-65 -91l1 5 l7 13l-3 5l-11 -6l-94 -20l-17 10q-70 -75 -109 -171.5t-39 -208.5v-5v1l14 -5l50 -85l149 -66l21 -22v-30l-18 -45l-1 -24l64 -126l2 -69q52 -29 112 -48l68 87l60 44zM410 752l-12 20v-5l11 -25zM561 1184l26 -15l40 18l31 34l1 29l-27 -5l-3 1q-14 -10 -27 -20.5 t-26 -23.5l3 -3l-16 -11zM670 1226l15 -2l11 13l3 15l-8 4l-21 -23v-7zM729 1303q-8 -3 -15 -7t-15 -8l3 -3l11 1l12 5l7 8zM752 1286l20 -16l26 -4l16 16l-10 1l-40 23l-11 2zM790 1304l31 1l59 39q-14 -2 -28 -4.5t-28 -5.5l-11 -15zM1153 1142l-9 3l-19 -4l-18 4l-1 -23 l2 -4l24 -3l16 12zM1116 1048v-52l10 -26l25 5l2 18zM949 1413q127 0 238.5 -48t194.5 -131t131 -194.5t48 -238.5t-48 -238.5t-131 -194.5t-194.5 -131t-238.5 -48t-238.5 48t-194.5 131t-131 194.5t-48 238.5t48 238.5t131 194.5t194.5 131t238.5 48zM1412 767l54 -99 l-66 105zM1255 1002l-32 13l17 13l67 107l-14 -50l11 -9l27 -2l6 -3zM666 922l-5 7l2 7l4 4l6 2l8 -1l-3 -10l1 1l-4 -8l-4 -4zM654 954l-42 -9l34 16v1zM641 938l8 -3l-2 -7l-19 -22l6 22zM1353 894l-4 8l5 16l11 12l13 -1l52 -34l2 -8zM1399 923l-3 4l2 8l7 -2l6 -3v1 l-2 -6l-5 -2h-5z" />
<glyph unicode="&#xf097;" horiz-adv-x="2082" d="M471 416q0 25 10 47.5t27.5 39t41 26t49.5 9.5h854q26 0 49.5 -9.5t41 -26t27.5 -39t10 -47.5q0 -26 -10 -48t-27.5 -38.5t-41 -26t-49.5 -9.5h-854q-26 0 -49.5 9.5t-41 26t-27.5 38.5t-10 48zM471 702h171v-327h-171v327zM1410 702h171v-327h-171v327zM1347 1007 q15 4 23 -9q10 -13 2 -28l-122 -336q-5 -8 -13 -10.5t-16 3.5l-267 237q-8 5 -11 16q-1 2 -1 9q2 16 16 19l116 30q-19 76 -58 125t-91 75.5t-114.5 34t-127.5 2.5t-130 -20t-123 -34q166 100 301 132.5t236 8.5t167 -98.5t95 -186.5z" />
<glyph unicode="&#xf098;" horiz-adv-x="2082" d="M1581 416q0 25 -10 47.5t-27.5 39t-41 26t-49.5 9.5h-854q-26 0 -49.5 -9.5t-41 -26t-27.5 -39t-10 -47.5q0 -26 10 -48t27.5 -38.5t41 -26t49.5 -9.5h854q26 0 49.5 9.5t41 26t27.5 38.5t10 48zM1581 702h-171v-327h171v327zM642 702h-171v-327h171v327zM1185 1286 q0 15 15 20q17 5 27 -5l296 -201q7 -6 7 -15t-7 -15l-296 -201q-8 -6 -18 -6q-1 0 -9 2q-15 4 -15 19v120q-119 0 -204.5 -16t-139 -53.5t-75.5 -99.5t-14 -154q-34 98 -36.5 172t20 128t66.5 89t103.5 56t131 29.5t148.5 8.5v122z" />
<glyph unicode="&#xf099;" d="M1341 1235q51 0 79 -2t40.5 -14.5t14.5 -40t2 -78.5v-406q0 -56 -13.5 -59.5t-46.5 29.5l-125 125l-219 -219q-17 -17 -38 -25.5t-43.5 -8.5t-44 8.5t-38.5 25.5l-95 96q-17 17 -25.5 38t-8.5 43.5t8.5 44t25.5 38.5l219 218l-128 127q-15 15 -22.5 26t-5.5 18.5t16 11.5 t42 4h406zM1279 651v-252q0 -40 -15.5 -75t-41.5 -61.5t-61 -41.5t-75 -15h-446q-40 0 -75 15t-61.5 41.5t-41.5 61.5t-15 75v445q0 40 15 75t41.5 61.5t61.5 41.5t75 15h255l-119 -119h-136q-31 0 -52.5 -21.5t-21.5 -52.5v-445q0 -31 21.5 -53t52.5 -22h446q31 0 52.5 22 t21.5 53v133z" />
<glyph unicode="&#xf100;" horiz-adv-x="1933" d="M1461 1129h-706v-89h706v89zM714 1101q0 13 -9 22t-23 9h-32q-13 0 -22 -9t-9 -22v-32q0 -14 9 -23t22 -9h32q14 0 23 9t9 23v32zM581 1101q0 13 -9 22t-22 9h-32q-14 0 -23 -9t-9 -22v-32q0 -14 9 -23t23 -9h32q13 0 22 9t9 23v32zM1417 1261q27 0 51 -10.5t42 -28.5 t28.5 -42t10.5 -51v-707q0 -27 -10.5 -51t-28.5 -42t-42 -28.5t-51 -10.5h-265v88h265q18 0 31 13t13 31v530h-971v-530q0 -18 13 -31t31 -13h221v-88h-221q-27 0 -51.5 10.5t-42.5 28.5t-28.5 42t-10.5 51v707q0 27 10.5 51t28.5 42t42.5 28.5t51.5 10.5h883zM1193 479 q-7 -13 -20 -13h-107q0 -53 -16.5 -113.5t-62.5 -112.5t-128.5 -86t-214.5 -34q79 23 127 54t73.5 73t34 96t8.5 123h-110q-15 0 -19 13q-1 1 -1 8t6 15l198 221q6 7 15 7t15 -7l197 -221q9 -11 5 -23z" />
<glyph unicode="&#xf101;" d="M707 1070q-17 0 -29.5 12.5t-12.5 29.5v127q0 17 12.5 29.5t29.5 12.5t29.5 -12.5t12.5 -29.5v-127q0 -17 -12.5 -29.5t-29.5 -12.5zM1299 1196v-84q0 -35 -25 -60t-60 -25t-59.5 24.5t-24.5 60.5v84h-339v-84q0 -35 -24.5 -60t-59.5 -25t-60 25t-25 60v84h-84 q-26 0 -49.5 -10t-40.5 -27t-27 -40t-10 -49v-761q0 -26 10 -49.5t27 -40.5t40.5 -27t49.5 -10h845q26 0 49 10t40.5 27t27.5 40.5t10 49.5v761q0 26 -10 49t-27.5 40t-40.5 27t-49 10h-84zM1426 309q0 -18 -12.5 -30.5t-30.5 -12.5h-845q-17 0 -29.5 12.5t-12.5 30.5v592 h930v-592zM1214 1070q-17 0 -29.5 12.5t-12.5 29.5v127q0 17 12.5 29.5t29.5 12.5t29.5 -12.5t12.5 -29.5v-127q0 -17 -12.5 -29.5t-29.5 -12.5zM1051 769q-29 0 -53 -16.5t-38 -31.5q-14 15 -37.5 31.5t-52.5 16.5q-51 0 -83 -32t-32 -83q0 -28 10 -51t26 -43.5t37 -38.5 t42 -35q20 -17 39.5 -34t36.5 -36q4 -7 14 -7h1q10 0 14 7q17 19 36.5 36t39.5 34q21 17 42 35t37 38.5t26 43.5t10 51q0 51 -32 83t-83 32z" />
<glyph unicode="&#xf102;" horiz-adv-x="1777" d="M782 789q16 20 41 50.5t56 64t66 66.5t71.5 59.5t73.5 42t72 13.5q-49 14 -88 11.5t-73 -16.5t-64 -38t-60.5 -53t-63.5 -60.5t-72 -61.5q-21 -17 -43 -30t-45 -24q-38 -20 -83.5 -34t-87.5 -8q-2 -24 9 -44t26 -35q8 -9 18.5 -16.5t21.5 -14.5q37 3 70 15.5t61.5 30.5 t52 39.5t41.5 42.5zM1257 1128q34 -35 52.5 -95.5t10.5 -135.5t-47.5 -159.5t-120.5 -165.5q-35 -35 -52.5 -82.5t-28.5 -94t-21 -86t-30 -59.5t-62 -26t-101.5 11.5t-134.5 64t-160 132.5q-86 85 -132.5 160t-64.5 135t-12 102t26 62q13 13 37 21.5t53.5 14.5t62.5 12 t65 15t61 22.5t51 35.5q82 82 165 123.5t156.5 51.5t132.5 -7.5t94 -51.5zM1304 1274q21 0 40 -8t33 -22t22 -33t8 -40t-8 -40t-22 -33t-33 -22t-40 -8t-40 8t-33 22t-22 33t-8 40t8 40t22 33t33 22t40 8zM1304 1222q-23 0 -36 -15q-15 -15 -15 -36q0 -22 15 -37t36 -15 t36.5 15t15.5 37q0 21 -15 36t-37 15zM621 319q45 -37 85.5 -62t75.5 -41q-7 -36 -35 -59.5t-66 -23.5q-21 0 -40 8t-33 22t-22 33t-8 40q0 26 11.5 47.5t31.5 35.5z" />
<glyph unicode="&#xf103;" d="M1208 900l76 -171l-167 85l-68 -175l-56 163l75 77q18 18 23.5 41t-17.5 37l-23 20q-14 22 -36.5 17t-41.5 -22l-68 -64l-175 67l178 59l-76 171l167 -85l67 175l58 -178l171 76l-84 -167l175 -67zM971 508l-59 -24l59 -23l24 -59l23 59l59 23l-59 24l-23 59zM1210 395 l-92 -36l92 -37l37 -92l36 92l92 37l-92 36l-36 92zM1015 1007q24 0 40 -16l26 -27q17 -17 17 -39.5t-17 -39.5l-265 -266l-107 106l266 266q16 16 40 16zM1015 965q-2 0 -4.5 -0.5t-5.5 -3.5l-236 -236l47 -47l236 236q10 10 0 20l-27 27q-3 4 -10 4zM845 648l-106 106 l-414 -414q-17 -17 -17 -39.5t17 -39.5l26 -27q17 -17 40 -17t40 17z" />
<glyph unicode="&#xf104;" d="M1209 849q0 37 -26 63t-63 26q-19 0 -35.5 -7t-28.5 -19t-19 -28.5t-7 -34.5t7 -34.5t19 -28.5t28.5 -19t35.5 -7q37 0 63 26t26 63zM852 849q0 37 -26 63t-63 26t-63 -26t-26 -63t26 -63t63 -26t63 26t26 63zM941 518q91 0 172.5 27.5t150.5 76.5q-54 -76 -137.5 -122 t-185.5 -46t-185.5 46t-137.5 122q69 -49 150.5 -76.5t172.5 -27.5zM941 1331q118 0 222.5 -45t181.5 -122.5t122 -181.5t45 -222q0 -79 -20.5 -152t-57.5 -136.5t-89 -116t-115.5 -89.5t-136.5 -57.5t-152 -20.5q-118 0 -222 45t-181.5 122.5t-122.5 181.5t-45 223 q0 118 45 222t122.5 181.5t181.5 122.5t222 45zM941 1242q-100 0 -187.5 -38t-153 -103.5t-103.5 -153t-38 -187.5t38 -187.5t103.5 -153t153 -103.5t187.5 -38t187.5 38t153 103.5t103.5 153t38 187.5t-38 187.5t-103.5 153t-153 103.5t-187.5 38z" />
<glyph unicode="&#xf105;" horiz-adv-x="1928" d="M393 1259q0 18 13 31.5t32 13.5h1077q19 0 32 -13.5t13 -31.5v-135q0 -19 -13 -32t-32 -13h-1077q-19 0 -32 13t-13 32v135zM905 482l238 238q10 10 35.5 27t54 31t53.5 20.5t36 -3.5q11 -11 4 -37.5t-21.5 -55.5t-31.5 -54.5t-25 -33.5l-238 -237zM968 336l-173 -173 q-10 -10 -24 -16t-29 -7t-29.5 3t-25.5 15t-15 26.5t-2.5 31.5t7 30t13.5 22l173 173zM910 585h-427q-19 0 -32 13.5t-13 31.5v494q0 19 13 32t32 13h987q19 0 32 -13t13 -32v-494q0 -18 -13 -31.5t-32 -13.5h-157h-403zM595 945h359h-359zM1179 945h179h-179zM595 810h359 h-359zM1021 496l315 314zM887 181l181 180z" />
<glyph unicode="&#xf106;" horiz-adv-x="1847" d="M843 319q0 -35 24.5 -60t59.5 -25t60 25t25 60q0 11 -12.5 19t-31.5 11.5t-40.5 4t-40.5 -3.5t-31.5 -12t-12.5 -19zM1060 311q0 -14 -9.5 -24t-23.5 -10h-200q-14 0 -23.5 10t-9.5 24v66q0 14 9.5 23.5t23.5 9.5h200q14 0 23.5 -9.5t9.5 -23.5v-66zM927 1070 q-53 0 -100 -20t-82 -55t-55.5 -82t-20.5 -100q0 -55 19.5 -99.5t43.5 -81t43.5 -67.5t19.5 -59v-18q0 -14 9.5 -23.5t23.5 -9.5h198q14 0 23.5 9.5t9.5 23.5v18q0 28 19.5 58.5t43.5 67t43.5 81t19.5 100.5q0 53 -20 100t-55 82t-82 55t-101 20zM788 721q-14 21 -22.5 45.5 t-8.5 50.5q0 35 13.5 65.5t36.5 53.5t54 36t66 13q25 0 47 -7t42 -18h-10q-45 0 -85 -17t-70 -46.5t-47 -68.5t-17 -84v-11.5t1 -11.5zM927 1209v133v-133zM1326 809h133h-133zM395 809h133h-133zM1209 527l94 -94zM551 1186l94 -94zM645 527l-94 -94zM1303 1186l-94 -94z " />
<glyph unicode="&#xf107;" horiz-adv-x="2359" d="M1594 669q29 0 46 15.5t17 34.5t-17 35t-46 16q-19 0 -34.5 -16t-15.5 -35t15.5 -34.5t34.5 -15.5zM1316 669q29 0 46 15.5t17 34.5t-17 35t-46 16q-19 0 -35 -16t-16 -35t16 -34.5t35 -15.5zM1885 605q0 -43 -13.5 -83t-37 -77t-56 -70t-70.5 -61l38 -126l-139 76 q-38 -10 -76 -18t-76 -8q-90 0 -168.5 29t-136.5 79t-91.5 116.5t-33.5 142.5t33.5 143t91.5 116.5t136.5 78.5t168.5 29q85 0 163 -29t137 -78.5t94.5 -116.5t35.5 -143zM797 1010q29 0 46.5 17.5t17.5 45.5q0 29 -17.5 46.5t-46.5 17.5q-14 0 -27.5 -4.5t-24.5 -13 t-17.5 -20t-6.5 -26.5q0 -28 24 -45.5t52 -17.5zM1151 1137q-14 0 -28 -4.5t-24.5 -13t-17 -20t-6.5 -26.5q0 -28 23.5 -45.5t52.5 -17.5t46.5 17.5t17.5 45.5q0 29 -17.5 46.5t-46.5 17.5zM1423 999q-90 0 -168.5 -31.5t-136.5 -85.5t-91.5 -127t-33.5 -156q0 -55 16 -106 q-12 -1 -23.5 -1.5t-23.5 -0.5q-48 0 -88.5 8t-88.5 18l-177 -89l50 152q-96 67 -149 151.5t-53 190.5q0 90 40 168.5t109 136.5t161 91.5t196 33.5q93 0 178 -27t153 -74.5t115 -113t64 -141.5q-24 3 -49 3z" />
<glyph unicode="&#xf108;" d="M1269 805h-112l1 69q0 24 7.5 37t42.5 13h71v122h-123q-45 0 -76.5 -11t-50.5 -32t-27.5 -51.5t-8.5 -68.5v-78h-64v-123h64v-365h164v365h99zM1283 1249q41 0 77 -15.5t62.5 -42.5t42 -63t15.5 -77v-658q0 -41 -15.5 -77t-42 -62.5t-62.5 -42t-77 -15.5h-658 q-41 0 -77 15.5t-63 42t-42.5 62.5t-15.5 77v658q0 41 15.5 77t42.5 63t63 42.5t77 15.5h658z" />
<glyph unicode="&#xf109;" horiz-adv-x="1883" d="M526 779l-2 6l-1 9l-2 4v6v7v6l2 8l3 8l2 8l4 10l5 9l7 10v7v6l1 9l3 9l3 11l2 5l3 4l3 5l3 4v7v7v10l2 12l2 15l4 17l5 18l4 9l3 11l4 10l5 11l5 11l6 11l6 12l8 12l4 6l4 6l8 12l9 13l10 12l11 13l11 12l12 12l15 14l9 8l12 9l11 8l13 7l12 7l13 5l15 7l14 5l14 5l15 4 l16 4l16 3l16 3l16 2l17 2l17 1h16h17h18l17 -2l17 -2l17 -2l16 -4l17 -3l16 -4l18 -5l16 -6l15 -6l16 -7l15 -8l15 -8l14 -9l12 -9l6 -5l6 -3l11 -10l10 -9l10 -10l9 -10l8 -11l9 -10l6 -12l7 -10l6 -12l6 -10l10 -22l4 -11l4 -11l4 -11l3 -11l2 -9l3 -11l6 -19l3 -17 l2 -16l2 -14l3 -20v-3l3 -3l6 -11l4 -7l4 -7l4 -8l5 -9l2 -10l3 -10l2 -11l1 -6l1 -6v-6l-1 -5v-7l-1 -7l-3 -13l-4 -7l-2 -8v-1l1 -3l3 -5l15 -22l12 -17l6 -11l7 -12l7 -14l8 -14l7 -16l9 -18l5 -11l4 -11l4 -12l4 -10l3 -11l3 -10l4 -20l2 -20l3 -18v-10v-8v-8l-2 -9 l-2 -15l-2 -14l-5 -13l-1 -5l-3 -6l-2 -4l-4 -6l-3 -3l-3 -4l-3 -4l-4 -3l-4 -2l-4 -2l-3 -1h-2h-2l-3 1l-6 3l-3 2l-2 2l-3 3l-3 3l-5 5l-6 8l-5 8l-4 7l-5 7l-6 13l-7 14l-1 1h-2l-2 -2l-2 -4l-3 -5l-5 -13l-7 -19l-10 -23l-7 -12l-7 -12l-9 -13l-9 -13l-5 -6l-6 -7 l-13 -13l1 -1l2 -2l6 -4l28 -13l12 -7l12 -7l11 -8l11 -9l5 -4l3 -4l4 -5l3 -6l2 -5l2 -5l1 -5l1 -6l-1 -4v-4l-1 -4l-2 -3l-1 -3l-2 -4l-5 -6l-4 -6l-4 -4l-3 -3l-8 -6l-9 -5l-9 -4l-10 -5l-11 -4l-6 -2l-5 -1l-13 -3l-13 -3l-13 -3l-15 -2l-15 -1l-15 -2h-15h-17h-16 l-17 1l-16 2l-17 2l-17 2l-19 2l-17 5l-17 3l-17 5l-17 6l-17 5l-9 3l-8 3l-5 2l-5 1h-7h-8l-16 1l-8 1l-11 1l-7 -6l-9 -6l-13 -6l-14 -8l-8 -4l-9 -3l-20 -8l-10 -3l-12 -3l-15 -3l-10 -1l-10 -1l-11 -1h-12h-12h-13h-26h-29l-28 3l-14 2l-14 2l-13 2l-13 3l-13 4l-12 3 l-11 4l-11 4l-9 5l-9 5l-9 6l-2 3l-4 4l-3 3l-3 4l-2 3l-2 4l-3 8l-1 4l-1 4v5l1 4v5l1 5v2v7l1 5l2 6l2 5l3 7l3 3l2 3l5 6l4 4l4 2l4 3l6 2l4 3l6 3l7 2l7 2l7 1l8 1l8 1l10 1l2 1h1l1 1v1l-2 2l-5 3l-12 11l-9 6l-9 9l-10 9l-10 12l-12 14l-4 7l-6 8l-5 9l-5 10l-6 9 l-4 10l-4 11l-5 11l-4 12l-3 13l-1 1h-1v1h-1l-2 -1l-1 -1l-2 -2v-3l-1 -2l-2 -4l-6 -11l-3 -6l-4 -5l-5 -7l-6 -7l-6 -6l-7 -6l-6 -6l-7 -5l-8 -4l-7 -3l-9 -2l-8 -1h-1h-1l-2 1l-2 3l-2 2l-3 8l-2 4l-3 6l-1 7l-1 6l-3 14l-1 9v9v19l1 21l2 10l2 11l1 12l4 11l3 13l4 12 l5 13l5 12l6 12l6 14l7 12l9 14l9 12l9 13l8 10l10 11l10 10l5 6l6 5l8 8l9 7l14 13l11 8z" />
<glyph unicode="&#xf110;" horiz-adv-x="2373" d="M1139 534q7 11 3 21.5t-15 15.5q-11 4 -22.5 -0.5t-18.5 -15.5q-13 -25 11 -36q11 -5 23.5 -0.5t18.5 15.5zM1062 435q17 29 9.5 57t-36.5 40q-29 13 -61 2t-49 -38q-18 -27 -10.5 -56t35.5 -42q29 -13 61.5 -2.5t50.5 39.5zM1150 701q45 -12 78 -37.5t51 -60t19.5 -75 t-16.5 -81.5q-18 -42 -52.5 -73.5t-77.5 -49.5t-90.5 -21.5t-92.5 11.5q-44 14 -75 41.5t-46.5 62.5t-14.5 74.5t20 78.5q19 38 51 67.5t72 47t85 22t89 -6.5zM1729 1086q35 -39 45 -88t-5 -97q-6 -20 -24 -28.5t-37 -2.5q-20 7 -29 24t-2 37q8 23 2.5 47t-22.5 43 q-18 20 -41 27.5t-47 1.5q-20 -5 -36 6t-21 31t6 36t31 21q48 11 96.5 -4t83.5 -54zM1878 1220q36 -41 59 -87t33 -95.5t7 -99.5t-18 -98v-1q-8 -22 -28 -33t-43 -3t-33.5 28t-2.5 43q23 69 8.5 141t-66.5 129t-122.5 78.5t-140.5 7.5q-23 -5 -42.5 7.5t-24.5 35.5t7.5 42.5 t35.5 24.5q50 10 100.5 8t98.5 -17t92 -43t80 -68zM1126 245q91 9 169 39.5t134 76t85.5 101.5t23.5 116t-46 109t-103.5 82.5t-146 48t-173.5 5.5t-169 -39.5t-134 -75.5t-85.5 -101t-23.5 -116t46 -109.5t103.5 -82.5t146 -48t173.5 -6zM1612 775q31 -10 63 -27 t57.5 -41.5t41.5 -57t16 -74.5q0 -46 -21.5 -95t-62 -95.5t-99 -87.5t-132.5 -72t-162 -49t-188 -18q-76 0 -151.5 12t-144 35.5t-127 57t-101.5 77t-67.5 96t-24.5 113.5q0 97 56.5 202t162.5 210q69 69 142 119t138 75.5t118.5 25t83.5 -31.5q26 -26 30 -70t-14 -101 q-5 -14 0 -19t13 -4q8 0 22 6q56 24 107.5 36t94.5 12t75.5 -12.5t50.5 -37.5q19 -27 18 -64t-19 -82q-8 -20 0.5 -26.5t23.5 -11.5z" />
<glyph unicode="&#xf111;" d="M859 492h-75v75h75v-75zM859 343h-75v75h75v-75zM859 194h-75v75h75v-75zM1492 604h-74v75h74v-75zM1492 455h-74v75h74v-75zM1492 306h-74v74h74v-74zM859 231v-74h-75v74h75zM1008 231v-74h-75v74h75zM1157 231v-74h-75v74h75zM1306 231v-74h-75v74h75zM1455 231v-74 h-74v74h74zM1157 902v-74h-75v74h75zM1306 902v-74h-75v74h75zM1455 902v-74h-74v74h74zM598 641v-74h-75v74h75zM747 641v-74h-75v74h75zM635 1238v-75h-75v75h75zM784 1238v-75h-75v75h75zM933 1238v-75h-74v75h74zM1082 940h75v-75h-75v75zM1082 1089h75v-75h-75v75z M1082 1238h75v-75h-75v75zM411 641h75v-74h-75v74zM411 791h75v-75h-75v75zM411 940h75v-75h-75v75zM411 1089h75v-75h-75v75zM411 1238h75v-75h-75v75zM1103 530q7 0 12 4t5 10v307q0 6 -5 10t-12 4h-302q-7 0 -12 -4t-5 -10v-307q0 -6 5 -10t12 -4h302z" />
<glyph unicode="&#xf112;" d="M466 557q-15 0 -25.5 8.5t-10.5 21.5v660q0 13 10.5 21.5t25.5 8.5h648q15 0 26 -8.5t11 -21.5v-660q0 -13 -11 -21.5t-26 -8.5h-648zM826 196q-15 0 -25.5 9t-10.5 21v661q0 13 10.5 21.5t25.5 8.5h649q15 0 25.5 -8.5t10.5 -21.5v-661q0 -12 -10.5 -21t-25.5 -9h-649z " />
</font>
</defs>
</svg>
